<svg width="137" height="41" viewBox="0 0 137 41" fill="none" xmlns="http://www.w3.org/2000/svg">
<path fill-rule="evenodd" clip-rule="evenodd" d="M10.2961 22.1909L10.6273 21.3451L10.6615 21.7273L10.3309 22.5499L10.2776 22.4501L10.3488 22.2384L10.2961 22.1909ZM26.4031 7.89481L26.8678 7.81366L27.6257 8.06841C27.8547 8.23331 28.0072 8.37494 28.0891 8.50433L28.3305 8.34642L27.7432 8.02143L28.2429 8.21082L28.8945 8.57084L28.1732 7.86381L28.8479 8.34729C29.2583 8.86598 29.4632 9.16026 29.4632 9.23079C29.4629 9.36592 29.5679 9.77772 29.7718 10.4719C29.8361 10.725 29.8708 10.954 29.8703 11.1601L29.8682 12.1419L29.784 12.9354L29.7135 12.8648L29.6242 13.3114L29.7496 12.6239L29.8231 11.3305C29.8109 11.3069 29.7642 11.1951 29.6826 10.9892C29.6239 10.8598 29.589 10.795 29.583 10.795C29.5594 10.795 29.5302 10.8123 29.4946 10.8477L29.4968 9.91878L29.4434 10.1597L29.3899 10.4361L29.3394 11.8289L29.2513 11.8112L29.2497 12.4699L29.1973 12.3991L29.1441 12.4164L29.0611 12.7575L28.7996 14.1032L28.5733 15.1845L28.4499 15.2369L27.9467 16.7528L27.5338 17.2516L27.4806 17.4746L27.1209 17.7326L26.8436 18.2139L26.7549 18.3843L26.791 18.161L27.0333 17.5444L27.0351 16.8035L27.1719 16.1454L27.1076 15.9398L26.8494 15.7331L26.3326 15.4731L26.128 14.9729L26.0048 14.9081L25.8877 14.6316L25.178 13.8713L25.197 13.354L25.2507 12.9893C25.1631 12.7601 25.1107 12.5246 25.0996 12.2837L25.0109 12.3893L24.9409 12.2303L24.8408 12.2477L24.8405 12.4066L24.5112 12.506L24.4759 12.4585L24.7201 11.1305C24.5731 11.1886 24.4434 11.2416 24.3433 11.3001C24.2019 11.394 24.0842 11.5231 23.9779 11.6992L24.1374 11.3704L23.4611 11.4217L22.6193 11.9192L22.2542 12.1774C21.9362 12.3703 21.5591 12.6343 21.1349 12.9625L20.1871 13.7186L19.15 14.6157L18.8909 14.8384L18.2545 15.4545L17.3055 16.4341L16.5099 17.3433L16.6798 17.485L16.4209 17.6022L15.9193 18.4122L15.3827 19.1693L13.8953 21.6472L13.5703 22.3517L13.3097 23.057L13.292 23.1978L13.168 23.4384L13.1498 23.5735L13.0672 23.697L12.7524 25.1602L12.6509 25.7947L12.6138 26.6534L12.7467 27.6529L12.8693 27.8651L12.9863 28.1359C13.1333 28.2772 13.2266 28.4066 13.2619 28.536V28.5009L13.4317 28.7421L13.6373 28.8484L13.6194 28.9485L14.1069 29.2435L15.2758 29.6227L15.4294 29.4526L15.3583 29.6227L16.7237 28.9732L18.3071 28.1483L17.9308 28.3059L15.7761 29.5768L16.1523 29.4366L18.1893 28.3065L18.6017 28.0664L18.619 28.0134L18.6543 28.0312L19.4491 27.5686L19.5313 27.6041L20.1021 27.3291L20.6382 26.9834L20.3607 27.3945L21.4322 26.7795L21.6208 26.6449L22.6039 26.0415L22.3977 26.2114L22.3804 26.2817L22.4444 26.4526L24.7401 25.1879L23.4269 26.1143L22.4612 26.7643L21.2542 27.5727L21.4124 27.726L22.3779 27.2287L23.7026 26.4086L24.103 26.1799L25.0335 25.5826L25.0329 25.8413L25.2914 25.7538L25.4623 25.6365L26.1039 25.3797L26.963 24.9169L26.9977 25.1227L26.6033 25.4629L25.1834 26.7529L25.9786 26.2021L24.7353 27.2518L24.9236 27.3049L23.8398 28.0786L22.5621 28.8987L21.5787 29.5549C21.2668 29.7361 21.0253 29.8595 20.8547 29.9293L20.4781 30.0345C20.3015 30.0988 20.2074 30.1455 20.184 30.1693C20.066 30.2393 19.9955 30.2803 19.9659 30.2976C19.9366 30.3155 19.9131 30.3329 19.8895 30.3389L18.2363 30.7878L16.9779 30.92L16.531 30.9368L16.3897 31.0068L16.0314 30.9531L15.5786 30.9698C15.5257 30.9696 15.3727 30.9516 15.1318 30.9156L14.7206 30.8443C14.7086 30.8323 14.691 30.8264 14.6614 30.8206C14.6323 30.815 14.6028 30.8085 14.5852 30.8088C14.5502 30.8027 14.5207 30.7909 14.497 30.7851C14.4737 30.7789 14.4148 30.7669 14.3267 30.7436L13.205 30.3234L11.8124 29.8085L11.5718 29.614L11.5365 29.6314C11.4311 29.5079 11.3605 29.4372 11.3135 29.4252L11.02 29.3069L10.3163 28.5116L10.1639 28.3409L10.0939 28.0466L9.65006 26.8052L9.75505 24.6534L9.86223 24.0482L9.96233 24.0133L9.89831 23.7897L10.1761 23.0847L10.3114 22.9319L10.14 23.4609L9.94903 24.6185L9.85735 26.1471L10.1134 27.3705L9.97535 26.0123L10.1547 24.6722L10.1915 24.0664L10.1918 23.896L10.2743 23.8255L10.2393 23.7019L10.3812 23.3261L10.6777 22.3096C10.7547 22.0807 10.9495 21.6634 11.2626 21.0531L11.3515 20.7595L11.4693 20.6594L11.5933 20.3835L11.7116 20.1956L11.6823 20.1424L11.8355 19.937L12.0957 19.4205L12.0428 19.2499V19.3145L11.6301 19.6779L11.453 20.0893C11.5127 19.7601 11.6014 19.5017 11.7135 19.3139L12.215 18.5093L12.2863 18.2508L12.116 18.1268L12.0632 18.2326L11.7867 18.2494L11.1967 19.089L10.5773 20.0341L9.66145 21.8959L9.19434 23.153L9.62652 21.7545L10.6484 19.764L11.4096 18.4895L12.1543 16.9571L12.9974 15.86L13.7046 15.0676L14.7775 13.947L15.0542 13.7595L16.1911 12.6801L16.7978 12.2116L18.2295 11.0622L20.3845 9.67408L21.7149 9.03633L21.4553 9.31195L21.5195 9.55311L20.8473 10.3984L20.8466 10.7277L19.6919 11.5478L19.2976 11.9295L18.137 12.8377L17.3302 13.5417L16.6873 14.2104L15.9801 14.967L15.615 15.3128L15.1491 15.8472L13.9406 17.2552L13.6637 17.6133L13.1973 18.3176L12.1296 19.9203L11.6453 20.795L11.3855 21.4001L11.0008 22.3986L10.8999 22.8628L10.7756 23.0331L10.6747 23.6736L10.4802 23.7732L10.4794 24.1728L10.3972 24.102L10.2344 25.8069L10.2341 25.942C10.2339 26.0128 10.2686 26.2185 10.3386 26.5654C10.3383 26.6007 10.3557 26.7304 10.3904 26.9593C10.3904 27.0298 10.4075 27.1422 10.4428 27.3065L10.4455 26.0134L10.6736 24.1027L11.1061 22.693L11.2773 22.3112L11.6801 21.1773L12.164 20.2675L13.3208 18.3533L14.4414 16.8271L14.9956 16.2404L15.6502 15.3779L15.9798 15.108L17.5532 13.507L17.9306 13.1313L18.8966 12.3396L19.5032 11.9118L20.9697 10.8628C21.3465 10.6111 21.7173 10.4239 22.0706 10.2953L23.4361 9.55771L24.1247 9.35338L24.4011 9.25443L24.4005 9.44239L24.677 9.44296L24.9179 9.47875L25.1889 9.1505L25.5179 9.27453L25.6066 9.08083L25.9479 8.96388L25.9658 8.84043L26.0895 8.85833L26.0198 8.51763L25.8847 8.44653L26.1259 8.34107L26.332 8.1533L26.8497 8.08411C27.02 8.0844 27.1849 8.13186 27.3488 8.22632C27.39 8.25015 27.4315 8.26747 27.4666 8.27972C27.4781 8.27972 27.4958 8.28537 27.5191 8.30307C27.5427 8.32097 27.5603 8.33236 27.572 8.34451C27.6076 8.35647 27.6545 8.39179 27.7248 8.45093L27.5373 8.20948L27.1434 7.96716L26.762 7.87797L26.6266 7.98353L26.503 7.96554L26.4031 7.89481ZM34.3009 23.0154L33.5203 26.6467C33.3818 27.2816 33.2624 27.9396 33.1672 28.6217C33.0714 29.3033 32.9873 30.0046 32.9151 30.7335C32.4998 30.6776 32.1159 30.6378 31.7554 30.6095C31.3946 30.581 31.0691 30.5686 30.7791 30.5677C30.497 30.5672 30.1758 30.5783 29.815 30.6049C29.4542 30.6316 29.0622 30.6694 28.6426 30.7237C29.5166 27.4334 30.2369 24.4206 30.8038 21.6864C31.3745 18.9479 31.7644 16.6084 31.9765 14.665C32.6192 14.7368 33.0739 14.7813 33.3441 14.8055C33.6104 14.8294 33.8381 14.8418 34.0182 14.8424C34.3043 14.8429 34.6296 14.828 35.0024 14.7938C35.3745 14.7632 35.7747 14.7249 36.202 14.6747C35.9095 15.6348 35.6326 16.7234 35.367 17.9458C35.3352 18.0752 35.3157 18.1691 35.2997 18.232L34.6581 21.0874C35.3051 21.1127 35.9008 21.1336 36.4532 21.1469C37.0019 21.1596 37.5035 21.1648 37.9544 21.1658C38.1856 21.1664 38.5542 21.1634 39.0599 21.1528C39.5653 21.1423 40.1924 21.1241 40.9415 21.1021L41.4406 18.787C41.5714 18.1642 41.6945 17.5096 41.8019 16.8164C41.9094 16.1266 42.0049 15.4172 42.0808 14.6885C42.5042 14.7407 42.8962 14.7805 43.2568 14.8131C43.6212 14.8492 43.9464 14.8655 44.2285 14.8659C44.5028 14.8665 44.8245 14.8519 45.1891 14.8213C45.5499 14.7908 45.9457 14.7525 46.3651 14.6984C45.4911 17.9892 44.7708 21.0052 44.2038 23.7438C43.6333 26.4826 43.2438 28.8216 43.0314 30.7571C42.628 30.7012 42.2598 30.6613 41.9343 30.6334C41.6091 30.6049 41.3426 30.5924 41.1267 30.5919C40.8527 30.5914 40.5353 30.6025 40.1862 30.625C39.8332 30.6475 39.3667 30.6858 38.7826 30.7473C38.937 30.1717 39.087 29.6036 39.2294 29.0435C39.3719 28.4792 39.5224 27.8642 39.6768 27.1979L40.5801 23.0298C40.5215 23.0298 40.4271 23.0258 40.3058 23.0216C38.8672 22.9631 37.8209 22.9332 37.1705 22.9316C36.8723 22.931 36.4727 22.9381 35.9749 22.9524C35.4771 22.9671 34.9204 22.9891 34.3009 23.0154ZM51.998 22.0015C52.0843 22.0096 52.1784 22.0178 52.2842 22.0221C52.3938 22.0259 52.5546 22.0264 52.7662 22.027C54.0909 22.0299 55.1144 21.7343 55.8374 21.1402C56.556 20.5423 56.9184 19.6926 56.9212 18.5834C56.9228 17.7877 56.7012 17.2034 56.2587 16.8298C55.8171 16.4566 55.1196 16.2705 54.1709 16.2683C54.0497 16.268 53.9203 16.2678 53.7871 16.2712C53.6536 16.2751 53.5047 16.2824 53.3441 16.29C53.273 16.5564 53.1978 16.854 53.1108 17.1831C53.0275 17.5121 52.9366 17.8843 52.8458 18.2956L51.998 22.0015ZM46.2812 30.7644C47.2381 27.1605 48.0139 23.9209 48.6048 21.0492C49.1995 18.1739 49.5334 16.062 49.6153 14.7059C49.9756 14.7379 50.3401 14.7586 50.7164 14.7751C51.0927 14.7916 51.4884 14.8003 51.9116 14.8014C52.3858 14.8025 53.0171 14.7881 53.809 14.7588C54.6046 14.733 55.1575 14.7187 55.4708 14.7192C57.2623 14.7235 58.59 15.0442 59.4624 15.6811C60.3351 16.3181 60.7677 17.2874 60.7648 18.5887C60.7621 19.8979 60.3636 20.9236 59.5703 21.6628C58.7766 22.4058 57.6196 22.826 56.1065 22.9323C56.6243 24.286 57.1582 25.6196 57.7157 26.9261C58.2693 28.2326 58.8504 29.5239 59.451 30.7951C59.3805 30.7873 59.2866 30.775 59.1651 30.759C58.0092 30.6428 57.2607 30.5822 56.9154 30.5813C56.6609 30.5807 56.3747 30.5959 56.053 30.6223C55.7318 30.6453 55.2888 30.7031 54.7202 30.7842C54.3938 29.4271 54.0404 28.1368 53.6552 26.9128C53.2737 25.685 52.857 24.5044 52.4092 23.3708L51.7782 23.3694L51.2305 26.1704C51.1513 26.5387 51.0519 27.1266 50.9326 27.9377C50.8133 28.7488 50.6852 29.6966 50.5536 30.7744C50.1188 30.7183 49.7114 30.6784 49.3351 30.6502C48.9626 30.622 48.6256 30.6093 48.3237 30.6084C48.0574 30.6079 47.422 30.6576 46.4183 30.753L46.2812 30.7644ZM68.6716 14.7503C67.8459 17.59 67.1571 20.3638 66.6024 23.0706C66.0511 25.7818 65.6453 28.3602 65.3966 30.809C64.9536 30.7531 64.5385 30.7127 64.1581 30.6848C63.7742 30.6565 63.4292 30.6435 63.1235 30.643C62.8807 30.6425 62.5942 30.6536 62.2728 30.6761C61.9513 30.6991 61.5357 30.7371 61.0225 30.799C61.9041 27.5984 62.6281 24.5978 63.203 21.8007C63.774 18.9993 64.1519 16.6484 64.3326 14.7399C64.7519 14.7923 65.1361 14.8322 65.4806 14.8644C65.8254 14.9005 66.1 14.9168 66.3077 14.9171C66.6721 14.9181 67.0565 14.9035 67.4599 14.8729C67.86 14.8425 68.2675 14.8042 68.6716 14.7503ZM68.1826 29.7812C68.3682 29.2289 68.5499 28.641 68.7317 28.0068C68.9132 27.376 69.1031 26.6747 69.2971 25.9036L69.5597 26.0408C69.7408 27.2214 70.1502 28.1079 70.7917 28.7093C71.4333 29.3064 72.2946 29.6062 73.3727 29.6089C74.1526 29.6108 74.7917 29.4046 75.2906 28.9863C75.7895 28.5721 76.0377 28.0355 76.0391 27.3771C76.0407 26.6715 75.3923 25.7646 74.0975 24.6524C73.9762 24.5501 73.8862 24.4794 73.8355 24.4324C72.3763 23.1981 71.4417 22.2435 71.0278 21.5724C70.6176 20.9012 70.4117 20.1755 70.4136 19.3956C70.4168 17.9646 70.9293 16.7821 71.9545 15.8554C72.9796 14.929 74.3015 14.4656 75.9243 14.4698C76.7943 14.4717 77.6331 14.5677 78.4361 14.7575C79.2391 14.9478 80.0103 15.2317 80.7428 15.6058C80.5415 16.0871 80.3564 16.5846 80.1864 17.0938C80.0168 17.599 79.8551 18.1396 79.7008 18.7035L79.4265 18.6327C79.2285 17.7931 78.8498 17.1415 78.2863 16.6855C77.7272 16.2298 77.0259 16.0009 76.1834 15.9987C75.4504 15.997 74.8658 16.1842 74.4299 16.5591C73.998 16.9305 73.7812 17.4316 73.7799 18.059C73.7779 18.7958 74.5479 19.7968 76.089 21.0742C76.2106 21.1727 76.3123 21.2514 76.3866 21.3141C77.603 22.3284 78.4008 23.1495 78.7874 23.7775C79.1739 24.4053 79.3647 25.0916 79.3628 25.8325C79.3589 27.4669 78.8031 28.7593 77.6957 29.713C76.5881 30.6666 75.0741 31.1416 73.1611 31.137C72.2597 31.1351 71.3899 31.0195 70.5555 30.79C69.7213 30.5646 68.9302 30.2258 68.1826 29.7812ZM87.0828 30.8597C87.8771 28.0279 88.554 25.266 89.1053 22.5747C89.66 19.879 90.0816 17.2893 90.3694 14.8009C91.0747 14.8576 91.7881 14.8983 92.5095 14.9314C93.2344 14.9648 93.9595 14.9819 94.6886 14.9835C95.2529 14.9846 95.9154 14.9745 96.6799 14.9491C97.4402 14.9232 98.4865 14.8828 99.8193 14.8229C99.6661 15.1283 99.5478 15.4493 99.4608 15.7783C99.3777 16.1112 99.3221 16.4836 99.2977 16.8873C98.5881 16.7799 97.9025 16.6964 97.2479 16.6396C96.5936 16.5873 95.9626 16.5583 95.3514 16.5566C95.0731 16.5561 94.6768 16.571 94.1556 16.6009H94.097C93.9272 17.0042 93.7417 17.6936 93.5431 18.6655L93.5314 18.7317L93.0076 21.4079C93.2075 21.4239 93.4782 21.4401 93.823 21.4529C94.4812 21.4936 94.8968 21.5139 95.0731 21.5142C95.6259 21.5153 96.5391 21.4787 97.8171 21.407C97.9858 21.3919 98.1032 21.3845 98.1738 21.3848C98.0596 21.6822 97.9725 21.9757 97.9131 22.2618C97.8575 22.5518 97.8254 22.8419 97.8249 23.1435L97.8122 23.453C97.1304 23.3808 96.4446 23.3288 95.7469 23.2875C95.0492 23.2472 94.3637 23.2254 93.6817 23.2244C93.5681 23.2238 93.3955 23.2271 93.1681 23.2346C92.9446 23.242 92.7686 23.2455 92.6468 23.2452L91.9854 26.3128C91.8541 26.9161 91.7551 27.4335 91.6834 27.8564C91.6121 28.2837 91.5641 28.6594 91.532 28.9887C92.3592 28.9828 93.2412 28.9572 94.1857 28.9084C95.1266 28.8601 96.1772 28.7918 97.3415 28.7044C97.2273 29.0254 97.1282 29.3625 97.045 29.7152C96.966 30.0635 96.8944 30.4552 96.8307 30.8822C95.8275 30.8331 94.8986 30.7995 94.0362 30.774C93.1744 30.7482 92.3904 30.735 91.6886 30.7333C91.1911 30.7322 90.5558 30.7422 89.7797 30.764C89.0076 30.7859 88.1099 30.8152 87.0828 30.8597ZM96.7872 34.7628C96.6621 34.5783 96.5568 34.3778 96.4594 34.1584C96.3656 33.9424 96.288 33.707 96.2256 33.4639C97.2763 33.443 98.0409 33.28 98.5277 32.9715C99.0143 32.6591 99.3881 32.0994 99.6407 31.2885C99.8658 30.5721 100.095 29.6829 100.329 28.6289C100.567 27.5712 100.852 26.1568 101.185 24.3818L101.313 23.6805C102.134 19.3396 102.549 16.3892 102.552 14.8291C102.995 14.8853 103.414 14.9254 103.806 14.9579C104.202 14.99 104.539 15.0062 104.825 15.007C105.084 15.0076 105.39 14.9927 105.743 14.962C106.095 14.9316 106.479 14.8934 106.891 14.8391C106.65 15.5718 106.377 16.6453 106.068 18.0595C105.759 19.4698 105.204 22.2745 104.406 26.4788C104.351 26.7292 104.288 27.1016 104.208 27.5916C103.85 29.6484 103.42 31.1092 102.912 31.9743C102.357 32.9214 101.595 33.6253 100.622 34.0816C99.6488 34.5379 98.4373 34.7663 96.9909 34.763L96.7872 34.7628ZM114.836 14.8574C114.01 17.6972 113.321 20.471 112.767 23.1778C112.215 25.8887 111.81 28.4672 111.561 30.9163C111.118 30.8604 110.703 30.8199 110.322 30.7921C109.938 30.7638 109.593 30.7508 109.287 30.7502C109.045 30.7497 108.758 30.7609 108.437 30.7833C108.115 30.8064 107.7 30.8444 107.186 30.9059C108.068 27.7057 108.792 24.7051 109.367 21.9083C109.938 19.1067 110.316 16.7556 110.497 14.8474C110.916 14.8996 111.3 14.9394 111.645 14.9717C111.99 15.0078 112.264 15.0238 112.472 15.0244C112.836 15.0254 113.22 15.0108 113.624 14.9801C114.024 14.9497 114.432 14.9114 114.836 14.8574ZM122.488 14.8991C122.295 15.4039 122.121 15.9487 121.963 16.5404C121.805 17.1277 121.631 17.8837 121.448 18.8006L120.762 22.2325L123.959 19.3942C124.474 18.9406 125.095 18.3307 125.817 17.5603C126.544 16.7856 127.342 15.8979 128.207 14.8885C128.567 14.9365 128.865 14.9726 129.096 15.0005C129.331 15.0285 129.512 15.0409 129.645 15.0412C129.825 15.0415 130.048 15.0301 130.311 15.0032C130.57 14.9767 130.872 14.9423 131.217 14.8956L131.193 15.1818C129.775 16.374 128.44 17.5386 127.195 18.6807C125.949 19.8219 124.783 20.9402 123.702 22.0315C124.4 23.5187 125.122 25.0017 125.863 26.4772C126.601 27.9527 127.369 29.4439 128.169 30.9549C127.711 30.9071 127.3 30.8708 126.931 30.8502C126.562 30.8258 126.237 30.8135 125.955 30.8128C125.649 30.8119 125.296 30.8228 124.897 30.8456C124.501 30.8643 124.062 30.8985 123.587 30.9446C123.1 29.6343 122.598 28.3984 122.083 27.233C121.564 26.0678 121.018 24.9651 120.448 23.9327L119.902 26.3301C119.763 26.9807 119.632 27.6899 119.513 28.454C119.39 29.2179 119.282 30.0445 119.178 30.934C118.751 30.8781 118.351 30.838 117.983 30.8101C117.618 30.7816 117.289 30.7688 116.995 30.7683C116.721 30.7677 116.411 30.7789 116.066 30.8054C115.721 30.8317 115.341 30.8703 114.929 30.9242C115.827 27.5515 116.563 24.4527 117.138 21.6279C117.717 18.8033 118.082 16.5506 118.239 14.8654C118.666 14.9216 119.05 14.9618 119.383 14.9935C119.717 15.0258 119.983 15.0421 120.191 15.0427C120.504 15.0434 120.857 15.0323 121.241 15.006C121.629 14.9791 122.045 14.9447 122.488 14.8991Z" fill="#EC1C24"/>
<path fill-rule="evenodd" clip-rule="evenodd" d="M20.8881 36.9932L23.1834 36.9984L22.7163 39.2457C22.4444 39.4231 22.1121 39.5733 21.7188 39.6968C21.3259 39.8194 20.9255 39.8807 20.5173 39.8796C19.8831 39.8779 19.3975 39.7307 19.0586 39.4369C18.5986 39.036 18.3682 38.4549 18.3701 37.6947C18.3715 37.185 18.4719 36.6972 18.671 36.2304C18.911 35.6689 19.2501 35.2343 19.6888 34.9253C20.128 34.6165 20.6446 34.463 21.2367 34.4644C21.8289 34.4657 22.3039 34.6071 22.6617 34.8898C23.0182 35.1708 23.2548 35.5815 23.3706 36.1194L22.3877 36.232C22.3007 35.9366 22.1631 35.7131 21.9711 35.5625C21.7779 35.412 21.5368 35.3368 21.2454 35.3363C20.9038 35.3354 20.5921 35.425 20.306 35.6048C20.0213 35.7861 19.7987 36.0647 19.6364 36.4439C19.4745 36.8213 19.3936 37.2349 19.3923 37.6828C19.3914 38.1241 19.4886 38.4503 19.6842 38.6613C19.8795 38.8729 20.1657 38.9785 20.5444 38.9795C20.7701 38.9801 21.0018 38.9473 21.2408 38.8824C21.4787 38.8181 21.6841 38.7405 21.8563 38.6496L22.0158 37.8713L20.7069 37.8683L20.8881 36.9932ZM24.2987 39.7999L23.2432 39.7975L24.3289 34.5611L26.6062 34.5662C26.9982 34.5673 27.3036 34.6099 27.5207 34.6918C27.7394 34.7751 27.9159 34.9256 28.0489 35.1453C28.1821 35.364 28.2483 35.6299 28.2474 35.9424C28.2466 36.3875 28.1156 36.7557 27.8533 37.0443C27.5912 37.3327 27.1954 37.5114 26.6659 37.5796C26.801 37.7028 26.9282 37.8666 27.0459 38.0695C27.2817 38.4796 27.5416 39.0597 27.8299 39.8081L26.6958 39.8057C26.6054 39.51 26.4288 39.0485 26.1638 38.4211C26.0203 38.0828 25.8667 37.8543 25.7034 37.738C25.6033 37.6685 25.4292 37.6338 25.1793 37.6333L24.7493 37.6322L24.2987 39.7999ZM24.9099 36.8461L25.4698 36.8475C26.037 36.8488 26.4133 36.8152 26.5986 36.7463C26.7841 36.6782 26.9298 36.5702 27.0353 36.4227C27.1397 36.2742 27.1924 36.1204 27.1927 35.9582C27.1935 35.767 27.1181 35.6241 26.9672 35.5285C26.8739 35.4707 26.6721 35.4425 26.3618 35.442L25.2009 35.4391L24.9099 36.8461ZM28.3496 37.7538C28.3501 37.4451 28.3974 37.1182 28.4891 36.7758C28.6084 36.3161 28.7907 35.9175 29.0354 35.579C29.2795 35.2417 29.5885 34.9751 29.9591 34.7798C30.331 34.5831 30.7529 34.4866 31.2268 34.4876C31.8607 34.489 32.3729 34.6917 32.7625 35.095C33.1531 35.4987 33.3468 36.0331 33.3452 36.6967C33.3438 37.2503 33.216 37.7842 32.9602 38.301C32.7047 38.8178 32.3588 39.2144 31.9223 39.4919C31.4845 39.7696 30.9911 39.9077 30.4406 39.9064C29.9626 39.9056 29.5617 39.7935 29.2374 39.5719C28.9142 39.3492 28.6857 39.0741 28.5503 38.7459C28.4157 38.4184 28.3488 38.0878 28.3496 37.7538ZM29.3934 37.7358C29.3926 38.0955 29.4995 38.3971 29.7138 38.6405C29.9284 38.8836 30.2097 39.0062 30.5596 39.0068C30.8439 39.0075 31.1176 38.9118 31.3811 38.7211C31.6442 38.5301 31.8607 38.2404 32.0338 37.8506C32.2055 37.4616 32.292 37.0826 32.2931 36.7131C32.2939 36.3004 32.1859 35.9774 31.9708 35.7424C31.7538 35.5067 31.4781 35.3887 31.1416 35.3879C30.6267 35.3865 30.2069 35.6309 29.8822 36.122C29.5584 36.6114 29.3947 37.149 29.3934 37.7358ZM34.2944 34.5837L35.3465 34.5864L34.7597 37.4297L34.6146 38.1291C34.6048 38.189 34.5999 38.2451 34.5999 38.2975C34.5993 38.505 34.6731 38.6762 34.8207 38.8102C34.9685 38.9461 35.1834 39.0139 35.4667 39.0145C35.7206 39.015 35.93 38.9664 36.096 38.8693C36.2626 38.7722 36.3904 38.6274 36.4815 38.434C36.574 38.241 36.6665 37.9144 36.7609 37.4525L37.355 34.591L38.4086 34.5935L37.8178 37.4584C37.6925 38.0606 37.5492 38.5215 37.387 38.8394C37.2251 39.1585 36.9809 39.4179 36.6543 39.6172C36.3266 39.8164 35.9146 39.9156 35.4151 39.9145C34.8183 39.9132 34.3612 39.7631 34.0441 39.4637C33.7283 39.1628 33.5705 38.7792 33.5712 38.3096C33.5715 38.2123 33.5802 38.1062 33.5962 37.9913C33.606 37.9144 33.6472 37.6991 33.721 37.3415L34.2944 34.5837ZM39.0529 39.8342L37.9961 39.8318L39.0831 34.5951L41.1684 34.6C41.5384 34.601 41.8322 34.6466 42.047 34.7364C42.2627 34.8259 42.4331 34.9738 42.5595 35.1802C42.6843 35.3866 42.7472 35.6335 42.7467 35.9186C42.7458 36.1834 42.6949 36.4406 42.5942 36.6906C42.4935 36.9402 42.3696 37.14 42.2234 37.2896C42.0774 37.4391 41.9198 37.5536 41.7522 37.6301C41.584 37.7069 41.358 37.766 41.0724 37.8057C40.9077 37.8292 40.597 37.8395 40.1422 37.8388L39.4675 37.8371L39.0529 39.8342ZM39.6445 36.9682L39.9706 36.9693C40.5269 36.9704 40.8997 36.9361 41.0861 36.8646C41.2724 36.794 41.4211 36.6799 41.5275 36.5227C41.6354 36.3657 41.6894 36.1937 41.6897 36.0049C41.6902 35.879 41.6631 35.7754 41.6083 35.6945C41.5535 35.6129 41.4772 35.554 41.3785 35.5174C41.2792 35.4792 41.0582 35.4604 40.7155 35.4599L39.9597 35.4582L39.6445 36.9682ZM45.1094 37.7928C45.1101 37.4843 45.1573 37.1577 45.2491 36.815C45.3682 36.3553 45.5505 35.9568 45.7952 35.6185C46.0396 35.281 46.3483 35.0146 46.7189 34.819C47.0908 34.6223 47.5126 34.5258 47.9865 34.5268C48.6207 34.5284 49.1326 34.7305 49.5222 35.1339C49.9129 35.5376 50.1063 36.0726 50.105 36.7359C50.1036 37.2895 49.9758 37.8237 49.72 38.3402C49.4647 38.857 49.1186 39.2535 48.6821 39.5308C48.2442 39.8089 47.7505 39.9472 47.2001 39.9456C46.7226 39.9445 46.3217 39.8327 45.9973 39.6111C45.6739 39.3881 45.4455 39.1133 45.3101 38.7848C45.1758 38.4579 45.1085 38.127 45.1094 37.7928ZM46.1504 37.7745C46.1493 38.1344 46.2562 38.4359 46.4705 38.6792C46.6851 38.9225 46.9664 39.0451 47.3163 39.046C47.6004 39.0465 47.8743 38.9508 48.1375 38.76C48.4007 38.569 48.6177 38.2793 48.7902 37.8893C48.9622 37.5005 49.049 37.1213 49.0498 36.7521C49.0506 36.3395 48.9427 36.0161 48.7272 35.7815C48.5103 35.5455 48.235 35.4277 47.8983 35.4269C47.3834 35.4255 46.9637 35.67 46.639 36.1609C46.3154 36.6503 46.1515 37.188 46.1504 37.7745ZM49.9521 39.8594L51.0394 34.6232L54.6289 34.6314L54.4442 35.5067L51.9112 35.5008L51.6489 36.7578L54.1344 36.7636L53.9532 37.6389L51.4694 37.6333L51.009 39.8618L49.9521 39.8594ZM60.0556 37.9958L61.119 38.1629C60.9098 38.7502 60.597 39.1994 60.182 39.5098C59.7658 39.8198 59.2794 39.9736 58.7217 39.9723C58.0948 39.9707 57.6043 39.777 57.2516 39.3906C56.899 39.003 56.7237 38.4431 56.7254 37.7095C56.7267 37.1133 56.8463 36.5696 57.085 36.0751C57.3224 35.5813 57.652 35.2043 58.0717 34.943C58.4927 34.6819 58.9503 34.5525 59.4449 34.5532C60 34.5546 60.4486 34.7067 60.7907 35.0115C61.1331 35.3158 61.3338 35.7311 61.3935 36.2544L60.3816 36.3523C60.3263 36.0471 60.2194 35.8258 60.0596 35.6894C59.8999 35.5521 59.6874 35.4832 59.421 35.4827C59.1297 35.4821 58.8573 35.5716 58.6037 35.7518C58.35 35.9327 58.1477 36.2154 57.9949 36.5992C57.8425 36.9828 57.7654 37.3672 57.7643 37.7511C57.7635 38.171 57.8617 38.4944 58.0581 38.7242C58.2546 38.9526 58.5003 39.0681 58.7941 39.0687C59.0662 39.0692 59.3176 38.9797 59.5447 38.7982C59.7734 38.6183 59.9435 38.3503 60.0556 37.9958ZM61.4657 37.831C61.4665 37.5223 61.5137 37.1958 61.6054 36.8531C61.7247 36.3933 61.907 35.9948 62.1515 35.6562C62.3959 35.319 62.7046 35.0527 63.0752 34.8573C63.4471 34.6604 63.8689 34.5638 64.3429 34.5652C64.9771 34.5665 65.489 34.7689 65.8786 35.1723C66.2692 35.5759 66.4629 36.1106 66.4612 36.7739C66.4599 37.3276 66.3324 37.8618 66.0766 38.3783C65.8211 38.895 65.4749 39.2916 65.0385 39.5689C64.6008 39.8469 64.1071 39.9853 63.5567 39.9839C63.0787 39.9829 62.6778 39.8708 62.3536 39.6492C62.0305 39.4265 61.8018 39.1513 61.6667 38.8232C61.5322 38.496 61.4649 38.165 61.4657 37.831ZM62.5098 37.8125C62.5089 38.1722 62.6155 38.4739 62.8299 38.7172C63.0442 38.9603 63.3257 39.0829 63.676 39.0838C63.96 39.0845 64.2337 38.9888 64.4971 38.7978C64.7603 38.6068 64.977 38.3171 65.1499 37.9273C65.3216 37.5385 65.4084 37.1593 65.4091 36.7898C65.4103 36.3775 65.3023 36.0541 65.0869 35.8192C64.8696 35.5834 64.5942 35.4654 64.2576 35.4647C63.743 35.4635 63.323 35.7076 62.9983 36.1987C62.6744 36.6881 62.5108 37.2257 62.5098 37.8125ZM69.2727 39.9042L68.2719 39.9018L68.0967 35.5239L67.2712 39.8996L66.3193 39.8972L67.4028 34.6608L68.9062 34.6642L69.0551 38.3349L70.8135 34.6689L72.3362 34.6722L71.2493 39.9089L70.2865 39.9064L71.3084 35.5627L69.2727 39.9042ZM72.9661 39.9133L71.9092 39.9106L72.996 34.6744L75.0816 34.6791C75.4515 34.6801 75.7451 34.7257 75.9599 34.8152C76.1759 34.905 76.3462 35.0529 76.4727 35.2596C76.5975 35.4657 76.6601 35.7123 76.6596 35.9977C76.659 36.2624 76.608 36.52 76.5068 36.7695C76.4062 37.0193 76.2828 37.219 76.1366 37.3684C75.9908 37.5182 75.8327 37.6327 75.6653 37.7092C75.4969 37.7857 75.2711 37.8448 74.9855 37.8845C74.8209 37.9086 74.5102 37.9189 74.0553 37.9178L73.3807 37.9161L72.9661 39.9133ZM73.5547 37.0475L73.8805 37.0483C74.4371 37.0496 74.8099 37.0152 74.9962 36.9439C75.1827 36.8734 75.331 36.7592 75.4376 36.6021C75.5455 36.445 75.5996 36.273 75.6001 36.0839C75.6004 35.9581 75.5733 35.8547 75.5182 35.7739C75.4634 35.6919 75.3875 35.6334 75.2881 35.5967C75.1892 35.5584 74.9683 35.5398 74.6257 35.5392L73.8699 35.5373L73.5547 37.0475ZM79.1399 38.7698L77.1061 38.765L76.4885 39.9208L75.4042 39.9184L78.3158 34.6866L79.4885 34.689L80.3088 39.9301L79.3081 39.9276L79.1399 38.7698ZM79.0126 37.8977L78.7201 35.7877L77.4766 37.8939L79.0126 37.8977ZM84.6727 39.9399L83.6886 39.9374L82.3115 36.4144L81.5831 39.9325L80.6006 39.9301L81.6822 34.6938L82.6691 34.696L84.0495 38.205L84.7755 34.7009L85.7548 34.7033L84.6727 39.9399ZM85.3182 39.9419L86.4042 34.7055L87.4575 34.7079L86.3753 39.9443L85.3182 39.9419ZM86.9754 39.9454L88.0588 34.7092L91.8614 34.718L91.6815 35.5933L88.9348 35.5868L88.6871 36.7758L91.3419 36.7821L91.1618 37.6575L88.506 37.6513L88.1815 39.0725L91.1659 39.0795L90.9821 39.955L86.9754 39.9454ZM91.5391 38.2583L92.5434 38.207C92.5558 38.5342 92.6106 38.755 92.7056 38.8687C92.8591 39.0556 93.1445 39.1489 93.5588 39.1499C93.904 39.1508 94.1539 39.0875 94.308 38.9625C94.4621 38.8361 94.5402 38.6837 94.5407 38.5057C94.5413 38.351 94.4781 38.2187 94.3516 38.1115C94.2638 38.0328 94.0204 37.9043 93.623 37.7276C93.2259 37.5503 92.9358 37.4032 92.7533 37.2844C92.571 37.1656 92.4267 37.0128 92.3222 36.8246C92.2175 36.6352 92.1655 36.4158 92.166 36.1635C92.1671 35.7216 92.3244 35.3572 92.638 35.0665C92.9513 34.7767 93.4047 34.633 93.9969 34.6343C94.5988 34.6356 95.0643 34.7805 95.3933 35.0692C95.7222 35.3591 95.9026 35.7424 95.9348 36.2221L94.9235 36.266C94.8975 36.0156 94.8096 35.8228 94.6582 35.6896C94.5071 35.5561 94.2839 35.4888 93.9873 35.4882C93.6963 35.4872 93.4871 35.539 93.3629 35.6438C93.2373 35.7487 93.1746 35.88 93.1743 36.0398C93.1738 36.1898 93.231 36.3143 93.3455 36.4122C93.4587 36.5126 93.7115 36.6498 94.1026 36.8252C94.6935 37.0863 95.0681 37.2972 95.2287 37.4594C95.4683 37.6995 95.5882 38.0057 95.5873 38.379C95.5863 38.8413 95.4062 39.236 95.0469 39.5617C94.6877 39.8892 94.1897 40.0517 93.5495 40.0501C93.1087 40.0492 92.727 39.9728 92.405 39.8206C92.0816 39.6683 91.8538 39.4582 91.7219 39.1882C91.5901 38.9186 91.5285 38.6096 91.5391 38.2583Z" fill="white"/>
<path d="M8.19023 18.532C-5.56435 29.5978 -0.943192 39.2957 17.3148 39.4242C16.4616 37.325 17.1844 35.072 18.375 34.2373C2.67758 35.3401 -2.08275 30.2083 7.89121 20.2594C7.96985 19.6918 8.06947 19.1153 8.19023 18.532Z" fill="#EC1C24"/>
<path d="M33.0747 8.74282C33.1588 9.12453 33.2337 9.51224 33.2993 9.9055C42.7444 7.3132 53.7867 5.16401 65.6623 3.75954C101.992 -0.536985 132.364 3.76301 133.499 13.3639C133.779 15.7325 132.254 18.2024 129.251 20.6441C134.122 17.5515 136.723 14.3529 136.365 11.3205C135.229 1.71965 104.858 -2.58034 68.5278 1.71619C55.3319 3.27681 43.1649 5.75695 33.0747 8.74282Z" fill="#EC1C24"/>
</svg>
