<svg width="121" height="36" viewBox="0 0 121 36" fill="none" xmlns="http://www.w3.org/2000/svg">
<path fill-rule="evenodd" clip-rule="evenodd" d="M8.94741 19.8058L9.2412 19.0556L9.27151 19.3946L8.97822 20.1242L8.93102 20.0357L8.9941 19.8479L8.94741 19.8058ZM23.2344 7.12484L23.6465 7.05286L24.3188 7.27883C24.5219 7.42509 24.6572 7.55072 24.7298 7.66549L24.944 7.52542L24.423 7.23715L24.8662 7.40514L25.4442 7.72449L24.8044 7.09734L25.4029 7.52619C25.7669 7.98628 25.9486 8.24731 25.9486 8.30987C25.9484 8.42973 26.0415 8.795 26.2224 9.41077C26.2794 9.63522 26.3103 9.83835 26.3098 10.0212L26.3079 10.8921L26.2333 11.5959L26.1707 11.5333L26.0915 11.9294L26.2027 11.3196L26.2679 10.1723C26.2571 10.1514 26.2157 10.0523 26.1433 9.86959C26.0913 9.75482 26.0603 9.69735 26.0549 9.69735C26.034 9.69735 26.0081 9.71272 25.9765 9.74404L25.9784 8.92012L25.9311 9.13379L25.8836 9.37903L25.8389 10.6144L25.7607 10.5987L25.7593 11.183L25.7128 11.1202L25.6656 11.1355L25.592 11.4381L25.36 12.6317L25.1594 13.5909L25.0499 13.6373L24.6035 14.9819L24.2373 15.4245L24.1901 15.6222L23.871 15.8511L23.6251 16.278L23.5464 16.4291L23.5784 16.2311L23.7933 15.6841L23.795 15.0269L23.9163 14.4432L23.8592 14.2608L23.6302 14.0775L23.1718 13.8469L22.9903 13.4032L22.8811 13.3457L22.7772 13.1005L22.1476 12.4261L22.1645 11.9672L22.2121 11.6437C22.1345 11.4404 22.088 11.2315 22.0781 11.0179L21.9994 11.1115L21.9374 10.9705L21.8486 10.9859L21.8483 11.1269L21.5562 11.215L21.5249 11.1729L21.7415 9.99497C21.6111 10.0465 21.496 10.0934 21.4072 10.1454C21.2819 10.2287 21.1775 10.3432 21.0831 10.4994L21.2247 10.2077L20.6248 10.2532L19.8781 10.6945L19.5542 10.9236C19.2722 11.0947 18.9377 11.3288 18.5614 11.62L17.7207 12.2906L16.8007 13.0863L16.5709 13.2838L16.0064 13.8304L15.1647 14.6993L14.4589 15.5058L14.6096 15.6314L14.38 15.7354L13.9351 16.4539L13.4591 17.1254L12.1398 19.3233L11.8515 19.9483L11.6203 20.5739L11.6046 20.6988L11.4947 20.9122L11.4785 21.032L11.4052 21.1415L11.126 22.4395L11.036 23.0023L11.0031 23.7639L11.121 24.6505L11.2297 24.8387L11.3335 25.0789C11.4639 25.2042 11.5466 25.319 11.5779 25.4338V25.4027L11.7285 25.6166L11.911 25.7109L11.8951 25.7997L12.3275 26.0614L13.3643 26.3978L13.5006 26.2468L13.4375 26.3978L14.6486 25.8216L16.0531 25.0899L15.7194 25.2297L13.808 26.357L14.1418 26.2327L15.9486 25.2302L16.3144 25.0172L16.3298 24.9703L16.3611 24.986L17.0661 24.5757L17.139 24.6072L17.6453 24.3633L18.1208 24.0567L17.8747 24.4212L18.8251 23.8758L18.9924 23.7564L19.8644 23.2212L19.6815 23.3719L19.6661 23.4342L19.7229 23.5858L21.7593 22.464L20.5944 23.2857L19.7378 23.8623L18.6672 24.5793L18.8076 24.7153L19.6639 24.2742L20.8389 23.5468L21.1941 23.3439L22.0195 22.8141L22.0189 23.0436L22.2482 22.9659L22.3998 22.8619L22.9689 22.6341L23.731 22.2236L23.7618 22.4062L23.4119 22.708L22.1525 23.8522L22.8578 23.3636L21.7549 24.2947L21.922 24.3418L20.9607 25.0281L19.8273 25.7555L18.955 26.3376C18.6784 26.4983 18.4642 26.6078 18.3128 26.6697L17.9788 26.763C17.8222 26.82 17.7387 26.8614 17.7179 26.8826C17.6133 26.9447 17.5507 26.981 17.5245 26.9964C17.4985 27.0123 17.4776 27.0277 17.4567 27.033L15.9903 27.4312L14.874 27.5484L14.4777 27.5634L14.3523 27.6254L14.0345 27.5778L13.6329 27.5926C13.586 27.5925 13.4502 27.5765 13.2366 27.5445L12.8718 27.4813C12.8612 27.4707 12.8456 27.4654 12.8193 27.4603C12.7935 27.4553 12.7673 27.4495 12.7517 27.4498C12.7207 27.4444 12.6945 27.4339 12.6735 27.4288C12.6528 27.4233 12.6006 27.4127 12.5224 27.392L11.5274 27.0192L10.2922 26.5625L10.0788 26.39L10.0475 26.4054C9.95396 26.2959 9.8914 26.2332 9.84972 26.2226L9.58937 26.1176L8.96519 25.4121L8.82997 25.2608L8.76791 24.9997L8.37421 23.8986L8.46733 21.9899L8.5624 21.4531L8.65119 21.4221L8.5944 21.2238L8.84083 20.5984L8.96086 20.4629L8.80883 20.9321L8.63939 21.9589L8.55807 23.3148L8.78523 24.4L8.66274 23.1952L8.82182 22.0065L8.8545 21.4692L8.85475 21.3181L8.92793 21.2555L8.89686 21.1459L9.02275 20.8126L9.28573 19.9109C9.35406 19.7079 9.52681 19.3378 9.80456 18.7963L9.88342 18.536L9.98792 18.4472L10.0978 18.2025L10.2028 18.0358L10.1768 17.9886L10.3127 17.8064L10.5435 17.3483L10.4966 17.1969V17.2542L10.1305 17.5766L9.9734 17.9414C10.0264 17.6495 10.1051 17.4202 10.2045 17.2537L10.6494 16.54L10.7126 16.3107L10.5615 16.2007L10.5146 16.2945L10.2694 16.3095L9.74607 17.0542L9.19668 17.8926L8.38431 19.544L7.96997 20.659L8.35332 19.4186L9.25975 17.6529L9.93495 16.5225L10.5955 15.1632L11.3433 14.19L11.9706 13.4872L12.9223 12.4932L13.1677 12.3269L14.1762 11.3695L14.7143 10.9539L15.9843 9.93436L17.8958 8.70307L19.0758 8.13738L18.8456 8.38185L18.9026 8.59577L18.3063 9.34558L18.3056 9.63768L17.2815 10.3651L16.9316 10.7036L15.9022 11.5093L15.1866 12.1337L14.6163 12.7268L13.989 13.3979L13.6652 13.7047L13.2519 14.1787L12.18 15.4276L11.9343 15.7452L11.5206 16.3699L10.5736 17.7915L10.144 18.5675L9.91356 19.1042L9.57231 19.9899L9.48284 20.4016L9.37257 20.5527L9.2831 21.1208L9.11052 21.2091L9.10984 21.5636L9.03692 21.5008L8.89253 23.013L8.89227 23.1329C8.8921 23.1957 8.92283 23.3781 8.98497 23.6859C8.98472 23.7172 9.00008 23.8322 9.0309 24.0353C9.0309 24.0978 9.04609 24.1975 9.07733 24.3432L9.07979 23.1962L9.28208 21.5015L9.66568 20.251L9.81755 19.9124L10.1748 18.9065L10.6041 18.0995L11.6302 16.4017L12.6242 15.0479L13.1158 14.5274L13.6964 13.7624L13.9888 13.5231L15.3844 12.1029L15.7191 11.7696L16.576 11.0674L17.1141 10.688L18.4149 9.75745C18.7491 9.5342 19.078 9.36816 19.3913 9.25407L20.6026 8.59984L21.2134 8.41861L21.4585 8.33084L21.458 8.49756L21.7032 8.49806L21.9169 8.52981L22.1573 8.23865L22.4492 8.34866L22.5278 8.17685L22.8306 8.07312L22.8464 7.96361L22.9562 7.97949L22.8943 7.67729L22.7745 7.61422L22.9884 7.52067L23.1713 7.35412L23.6304 7.29275C23.7815 7.293 23.9278 7.33511 24.0731 7.41889C24.1097 7.44003 24.1466 7.45539 24.1776 7.46626C24.1879 7.46626 24.2036 7.47127 24.2242 7.48697C24.2452 7.50284 24.2608 7.51295 24.2712 7.52373C24.3028 7.53434 24.3444 7.56566 24.4067 7.61812L24.2404 7.40395L23.891 7.18902L23.5527 7.1099L23.4326 7.20353L23.3229 7.18757L23.2344 7.12484ZM30.2398 20.5371L29.5475 23.7581C29.4246 24.3212 29.3187 24.9049 29.2342 25.5099C29.1493 26.1146 29.0747 26.7366 29.0107 27.3831C28.6422 27.3335 28.3018 27.2982 27.982 27.2732C27.662 27.2479 27.3732 27.2369 27.116 27.2361C26.8657 27.2357 26.5808 27.2455 26.2608 27.2691C25.9408 27.2927 25.5931 27.3263 25.2208 27.3745C25.9961 24.4559 26.635 21.7835 27.1379 19.3583C27.6441 16.9291 27.99 14.854 28.1781 13.1302C28.7482 13.1939 29.1515 13.2334 29.3911 13.2548C29.6274 13.276 29.8293 13.2871 29.9891 13.2876C30.2429 13.288 30.5314 13.2747 30.862 13.2444C31.1922 13.2173 31.5471 13.1833 31.9261 13.1388C31.6667 13.9904 31.421 14.956 31.1855 16.0403C31.1573 16.1551 31.14 16.2383 31.1258 16.2942L30.5567 18.827C31.1305 18.8494 31.659 18.8679 32.1489 18.8797C32.6357 18.891 33.0806 18.8956 33.4806 18.8965C33.6856 18.897 34.0126 18.8944 34.4611 18.885C34.9094 18.8756 35.4657 18.8595 36.1301 18.84L36.5729 16.7865C36.6888 16.234 36.7981 15.6534 36.8933 15.0385C36.9886 14.4267 37.0734 13.7974 37.1407 13.1511C37.5163 13.1973 37.864 13.2326 38.1839 13.2616C38.507 13.2936 38.7955 13.308 39.0457 13.3084C39.289 13.309 39.5744 13.296 39.8978 13.2688C40.2178 13.2418 40.5689 13.2079 40.9409 13.1598C40.1656 16.0788 39.5268 18.7541 39.0238 21.1832C38.5178 23.6126 38.1723 25.6872 37.9839 27.4041C37.6261 27.3545 37.2995 27.3191 37.0108 27.2943C36.7223 27.2691 36.4859 27.258 36.2944 27.2576C36.0514 27.2571 35.7698 27.2669 35.4602 27.2869C35.1471 27.3069 34.7333 27.3408 34.2152 27.3954C34.3521 26.8848 34.4851 26.3809 34.6114 25.8841C34.7378 25.3836 34.8714 24.838 35.0083 24.247L35.8095 20.5498C35.7576 20.5498 35.6738 20.5463 35.5663 20.5426C34.2902 20.4907 33.3622 20.4642 32.7852 20.4628C32.5207 20.4622 32.1663 20.4685 31.7247 20.4813C31.2832 20.4942 30.7894 20.5138 30.2398 20.5371ZM45.9363 19.6379C46.0128 19.6451 46.0963 19.6523 46.1901 19.6561C46.2873 19.6595 46.43 19.66 46.6177 19.6605C47.7927 19.6631 48.7006 19.4009 49.3418 18.8739C49.9793 18.3435 50.3007 17.5899 50.3032 16.606C50.3046 15.9002 50.108 15.3819 49.7156 15.0506C49.3238 14.7195 48.7052 14.5544 47.8637 14.5524C47.7561 14.5522 47.6414 14.552 47.5232 14.5551C47.4048 14.5585 47.2727 14.565 47.1303 14.5717C47.0672 14.808 47.0006 15.072 46.9233 15.3639C46.8495 15.6557 46.7688 15.9859 46.6883 16.3507L45.9363 19.6379ZM40.8664 27.4105C41.7151 24.2139 42.4033 21.3403 42.9274 18.793C43.4549 16.2427 43.751 14.3694 43.8237 13.1665C44.1433 13.1949 44.4666 13.2132 44.8004 13.2279C45.1342 13.2425 45.4852 13.2502 45.8606 13.2512C46.2812 13.2522 46.8412 13.2394 47.5435 13.2134C48.2493 13.1905 48.7397 13.1778 49.0176 13.1783C50.6067 13.1821 51.7844 13.4666 52.5582 14.0315C53.3323 14.5965 53.7161 15.4563 53.7134 16.6106C53.7111 17.7718 53.3576 18.6817 52.6539 19.3373C51.9499 19.9964 50.9236 20.3691 49.5814 20.4634C50.0408 21.6642 50.5144 22.8471 51.0088 24.006C51.4999 25.1648 52.0153 26.3102 52.5481 27.4378C52.4855 27.4308 52.4023 27.42 52.2945 27.4058C51.2692 27.3027 50.6053 27.2489 50.299 27.2481C50.0733 27.2476 49.8194 27.2611 49.534 27.2845C49.2491 27.3049 48.8562 27.3562 48.3518 27.4281C48.0623 26.2243 47.7488 25.0799 47.4071 23.9942C47.0688 22.9051 46.6992 21.8579 46.3019 20.8523L45.7422 20.8511L45.2564 23.3356C45.1861 23.6623 45.098 24.1838 44.9922 24.9032C44.8863 25.6227 44.7727 26.4635 44.656 27.4195C44.2703 27.3697 43.9089 27.3343 43.5751 27.3093C43.2448 27.2842 42.9459 27.2729 42.6781 27.2722C42.4418 27.2717 41.8782 27.3158 40.9879 27.4004L40.8664 27.4105ZM60.7277 13.206C59.9953 15.7248 59.3843 18.1852 58.8923 20.5862C58.4034 22.991 58.0434 25.2781 57.8227 27.4502C57.4298 27.4007 57.0616 27.3648 56.7242 27.3401C56.3837 27.315 56.0777 27.3035 55.8065 27.303C55.5911 27.3025 55.337 27.3124 55.0519 27.3323C54.7668 27.3528 54.3981 27.3865 53.9429 27.4413C54.7248 24.6024 55.3671 21.9409 55.877 19.4598C56.3835 16.9749 56.7187 14.8896 56.8789 13.1968C57.2509 13.2432 57.5917 13.2786 57.8973 13.3072C58.2031 13.3392 58.4467 13.3537 58.6309 13.3539C58.9541 13.3549 59.2951 13.3419 59.6529 13.3147C60.0078 13.2878 60.3693 13.2538 60.7277 13.206ZM60.2933 26.5384C60.4579 26.0485 60.6191 25.5271 60.7803 24.9645C60.9413 24.405 61.1097 23.783 61.2818 23.099L61.5147 23.2207C61.6754 24.2679 62.0386 25.0542 62.6076 25.5877C63.1766 26.1173 63.9406 26.3832 64.8969 26.3856C65.5887 26.3873 66.1556 26.2044 66.5981 25.8333C67.0406 25.466 67.2608 24.99 67.262 24.406C67.2635 23.7801 66.6884 22.9757 65.5398 21.9891C65.4323 21.8984 65.3524 21.8357 65.3074 21.794C64.0131 20.6992 63.1841 19.8524 62.817 19.2571C62.4531 18.6618 62.2705 18.0181 62.2722 17.3263C62.275 16.057 62.7296 15.0081 63.6389 14.1861C64.5483 13.3644 65.7208 12.9534 67.1602 12.957C67.932 12.9587 68.6759 13.0439 69.3882 13.2123C70.1005 13.381 70.7845 13.6329 71.4342 13.9647C71.2557 14.3916 71.0916 14.833 70.9407 15.2846C70.7903 15.7327 70.6469 16.2122 70.51 16.7124L70.2667 16.6496C70.0911 15.9049 69.7552 15.3269 69.2554 14.9224C68.7594 14.5182 68.1374 14.3151 67.39 14.3132C66.7399 14.3117 66.2213 14.4778 65.8346 14.8103C65.4515 15.1397 65.2593 15.5842 65.2581 16.1407C65.2564 16.7943 65.9393 17.6822 67.3063 18.8153C67.4141 18.9026 67.5044 18.9724 67.5702 19.028C68.6493 19.9277 69.3569 20.6561 69.6998 21.2131C70.0427 21.77 70.2119 22.3787 70.2102 23.0359C70.2068 24.4857 69.7137 25.632 68.7315 26.478C67.749 27.3238 66.4061 27.7452 64.7092 27.7411C63.9096 27.7394 63.1382 27.6369 62.398 27.4333C61.6581 27.2333 60.9564 26.9328 60.2933 26.5384ZM77.0588 27.4951C77.7634 24.9832 78.3638 22.5334 78.8528 20.1462C79.3449 17.7551 79.7188 15.458 79.974 13.2508C80.5997 13.301 81.2325 13.3372 81.8724 13.3665C82.5153 13.3961 83.1585 13.4113 83.8053 13.4128C84.3058 13.4137 84.8934 13.4048 85.5715 13.3822C86.246 13.3593 87.174 13.3235 88.3563 13.2703C88.2204 13.5412 88.1154 13.8259 88.0382 14.1177C87.9645 14.413 87.9152 14.7434 87.8935 15.1014C87.2641 15.0062 86.656 14.9321 86.0753 14.8817C85.495 14.8353 84.9353 14.8096 84.3931 14.8081C84.1463 14.8076 83.7948 14.8209 83.3325 14.8473H83.2805C83.1299 15.2051 82.9653 15.8166 82.7892 16.6787L82.7788 16.7375L82.3141 19.1112C82.4915 19.1254 82.7316 19.1398 83.0375 19.1511C83.6212 19.1873 83.9899 19.2053 84.1463 19.2056C84.6367 19.2065 85.4467 19.1741 86.5803 19.1105C86.7299 19.0971 86.8341 19.0905 86.8966 19.0908C86.7954 19.3545 86.7181 19.6149 86.6654 19.8687C86.6161 20.1259 86.5876 20.3832 86.5872 20.6508L86.5759 20.9253C85.9712 20.8613 85.3629 20.8151 84.744 20.7785C84.1251 20.7427 83.5171 20.7234 82.9121 20.7225C82.8113 20.722 82.6583 20.7249 82.4566 20.7316C82.2583 20.7381 82.1022 20.7413 81.9941 20.741L81.4075 23.462C81.291 23.9971 81.2032 24.456 81.1396 24.8311C81.0764 25.2101 81.0338 25.5434 81.0053 25.8355C81.739 25.8302 82.5214 25.8076 83.3592 25.7643C84.1937 25.7214 85.1256 25.6608 86.1584 25.5833C86.0571 25.868 85.9692 26.1671 85.8954 26.4799C85.8253 26.7889 85.7618 27.1363 85.7053 27.5151C84.8154 27.4715 83.9915 27.4417 83.2266 27.4191C82.4621 27.3962 81.7667 27.3845 81.1442 27.383C80.7029 27.382 80.1394 27.3909 79.451 27.4102C78.7661 27.4296 77.9698 27.4557 77.0588 27.4951ZM85.6656 30.9572C85.5546 30.7936 85.4612 30.6157 85.3748 30.4211C85.2916 30.2295 85.2228 30.0207 85.1674 29.8051C86.0994 29.7866 86.7777 29.6419 87.2094 29.3683C87.6411 29.0912 87.9726 28.5947 88.1966 27.8755C88.3964 27.24 88.5999 26.4512 88.8072 25.5164C89.0182 24.5782 89.2713 23.3236 89.5668 21.7492L89.6796 21.1271C90.4083 17.2766 90.776 14.6596 90.7791 13.2758C91.172 13.3256 91.5438 13.3612 91.8915 13.39C92.2426 13.4185 92.5417 13.4329 92.7953 13.4336C93.0249 13.4341 93.296 13.4209 93.6091 13.3937C93.9219 13.3667 94.2626 13.3328 94.6279 13.2847C94.4142 13.9346 94.1721 14.8868 93.898 16.1412C93.624 17.3921 93.1314 19.8799 92.424 23.6092C92.3746 23.8313 92.3186 24.1617 92.2478 24.5963C91.9307 26.4207 91.5489 27.7164 91.0984 28.4838C90.6061 29.3238 89.9304 29.9483 89.0673 30.353C88.2039 30.7577 87.1293 30.9603 85.8463 30.9574L85.6656 30.9572ZM101.675 13.3009C100.943 15.8198 100.332 18.2803 99.8396 20.6812C99.3506 23.0857 98.9907 25.3729 98.77 27.5453C98.3771 27.4957 98.0089 27.4598 97.6716 27.4351C97.3308 27.4101 97.0251 27.3985 96.7536 27.398C96.5382 27.3975 96.2843 27.4074 95.9992 27.4274C95.7141 27.4478 95.3455 27.4815 94.89 27.5361C95.6719 24.6975 96.3142 22.0359 96.8241 19.5551C97.3307 17.0701 97.666 14.9846 97.8263 13.292C98.198 13.3383 98.5388 13.3736 98.8446 13.4023C99.1505 13.4343 99.394 13.4485 99.5783 13.449C99.9015 13.4499 100.242 13.4369 100.6 13.4098C100.955 13.3828 101.317 13.3488 101.675 13.3009ZM108.463 13.3377C108.291 13.7855 108.137 14.2687 107.997 14.7936C107.857 15.3145 107.702 15.9851 107.54 16.7984L106.931 19.8426L109.768 17.3249C110.224 16.9226 110.775 16.3816 111.416 15.6983C112.061 15.011 112.768 14.2237 113.535 13.3283C113.855 13.3709 114.119 13.4029 114.324 13.4277C114.533 13.4525 114.693 13.4636 114.811 13.4638C114.971 13.4641 115.169 13.454 115.402 13.4301C115.631 13.4066 115.899 13.376 116.205 13.3346L116.184 13.5885C114.926 14.646 113.742 15.679 112.637 16.6921C111.533 17.7044 110.498 18.6963 109.54 19.6642C110.159 20.9834 110.799 22.2989 111.457 23.6077C112.111 24.9164 112.792 26.2391 113.502 27.5794C113.095 27.537 112.731 27.5049 112.404 27.4865C112.077 27.4649 111.788 27.454 111.538 27.4533C111.267 27.4526 110.954 27.4622 110.599 27.4825C110.248 27.4991 109.859 27.5294 109.438 27.5703C109.006 26.408 108.56 25.3118 108.104 24.278C107.643 23.2445 107.159 22.2664 106.653 21.3506L106.169 23.4772C106.046 24.0543 105.93 24.6833 105.824 25.3611C105.714 26.0387 105.619 26.7719 105.527 27.5609C105.148 27.5113 104.793 27.4757 104.466 27.451C104.143 27.4257 103.851 27.4144 103.59 27.4139C103.347 27.4134 103.072 27.4233 102.766 27.4468C102.46 27.4701 102.123 27.5044 101.758 27.5522C102.554 24.5605 103.207 21.8119 103.717 19.3063C104.231 16.8008 104.555 14.8027 104.694 13.3079C105.073 13.3577 105.413 13.3933 105.709 13.4214C106.004 13.4501 106.241 13.4646 106.425 13.4651C106.703 13.4658 107.016 13.4559 107.357 13.4326C107.701 13.4087 108.07 13.3782 108.463 13.3377Z" fill="#EC1C24"/>
<path fill-rule="evenodd" clip-rule="evenodd" d="M18.3421 32.9356L20.3781 32.9402L19.9637 34.9335C19.7226 35.0909 19.4278 35.2242 19.079 35.3337C18.7305 35.4424 18.3753 35.4968 18.0132 35.4958C17.4506 35.4944 17.0199 35.3637 16.7193 35.1031C16.3113 34.7475 16.107 34.2321 16.1087 33.5578C16.1098 33.1057 16.1989 32.673 16.3755 32.259C16.5884 31.7608 16.8892 31.3754 17.2783 31.1013C17.6679 30.8274 18.1261 30.6913 18.6514 30.6925C19.1767 30.6936 19.598 30.819 19.9154 31.0698C20.2316 31.3191 20.4414 31.6833 20.5441 32.1605L19.6723 32.2604C19.5951 31.9984 19.4731 31.8001 19.3027 31.6665C19.1314 31.533 18.9175 31.4663 18.659 31.4659C18.3561 31.4651 18.0796 31.5446 17.8258 31.7041C17.5733 31.8648 17.3758 32.1119 17.2319 32.4483C17.0883 32.7831 17.0165 33.1499 17.0153 33.5472C17.0146 33.9387 17.1007 34.228 17.2742 34.4152C17.4475 34.6029 17.7013 34.6965 18.0373 34.6974C18.2375 34.6979 18.443 34.6688 18.6549 34.6113C18.866 34.5542 19.0481 34.4855 19.2009 34.4048L19.3424 33.7144L18.1814 33.7118L18.3421 32.9356ZM21.3668 35.4249L20.4305 35.4227L21.3936 30.7779L23.4135 30.7824C23.7612 30.7835 24.0322 30.8212 24.2247 30.8939C24.4187 30.9678 24.5753 31.1013 24.6932 31.2962C24.8114 31.4902 24.8701 31.726 24.8694 32.0032C24.8686 32.398 24.7524 32.7246 24.5197 32.9806C24.2873 33.2364 23.9362 33.3949 23.4665 33.4554C23.5864 33.5646 23.6992 33.71 23.8036 33.8899C24.0128 34.2537 24.2432 34.7682 24.499 35.4321L23.493 35.4299C23.4129 35.1676 23.2563 34.7583 23.0211 34.2018C22.8939 33.9017 22.7576 33.6991 22.6128 33.5959C22.524 33.5342 22.3695 33.5035 22.1479 33.503L21.7665 33.5021L21.3668 35.4249ZM21.9105 32.805L22.4071 32.8061C22.9102 32.8073 23.244 32.7775 23.4083 32.7164C23.5729 32.656 23.7021 32.5602 23.7958 32.4293C23.8884 32.2977 23.9351 32.1613 23.9353 32.0174C23.9361 31.8478 23.8692 31.7209 23.7353 31.6362C23.6526 31.585 23.4735 31.5599 23.1983 31.5595L22.1687 31.5569L21.9105 32.805ZM24.9608 33.61C24.9613 33.3362 25.0032 33.0463 25.0845 32.7425C25.1904 32.3347 25.3521 31.9812 25.5691 31.6809C25.7857 31.3818 26.0597 31.1453 26.3885 30.972C26.7183 30.7976 27.0925 30.712 27.5129 30.7129C28.0752 30.7141 28.5295 30.8939 28.8751 31.2517C29.2216 31.6097 29.3934 32.0837 29.392 32.6723C29.3907 33.1634 29.2774 33.637 29.0505 34.0954C28.8238 34.5538 28.517 34.9056 28.1299 35.1517C27.7415 35.3981 27.3038 35.5206 26.8155 35.5194C26.3915 35.5187 26.0359 35.4193 25.7483 35.2227C25.4616 35.0252 25.259 34.7811 25.1388 34.49C25.0195 34.1995 24.9601 33.9063 24.9608 33.61ZM25.8873 33.5941C25.8867 33.9131 25.9815 34.1807 26.1715 34.3966C26.3619 34.6122 26.6114 34.7209 26.9218 34.7214C27.174 34.7221 27.4168 34.6372 27.6505 34.4681C27.8838 34.2986 28.0758 34.0417 28.2294 33.6959C28.3817 33.3508 28.4584 33.0147 28.4594 32.6869C28.4601 32.3209 28.3644 32.0343 28.1735 31.8259C27.981 31.6169 27.7365 31.5122 27.438 31.5115C26.9813 31.5102 26.609 31.727 26.3209 32.1626C26.0337 32.5967 25.8885 33.0736 25.8873 33.5941ZM30.2341 30.7984L31.1673 30.8008L30.6468 33.3228L30.518 33.9432C30.5094 33.9963 30.5051 34.0461 30.5051 34.0926C30.5045 34.2766 30.57 34.4285 30.7009 34.5473C30.832 34.6679 31.0226 34.728 31.2739 34.7286C31.4991 34.729 31.6848 34.6859 31.8321 34.5998C31.9799 34.5136 32.0932 34.3852 32.174 34.2136C32.2561 34.0425 32.3381 33.7528 32.4219 33.343L32.9489 30.8049L33.8834 30.8071L33.3594 33.3483C33.2482 33.8825 33.1211 34.2913 32.9772 34.5733C32.8336 34.8563 32.6171 35.0864 32.3273 35.2632C32.0367 35.4398 31.6712 35.5279 31.2281 35.5269C30.6988 35.5257 30.2934 35.3926 30.012 35.127C29.7319 34.8601 29.5919 34.5199 29.5926 34.1034C29.5929 34.017 29.6006 33.9229 29.6148 33.8209C29.6234 33.7528 29.66 33.5618 29.7255 33.2446L30.2341 30.7984ZM34.4554 35.4554L33.5179 35.4533L34.4821 30.8082L36.3318 30.8126C36.66 30.8135 36.9206 30.8539 37.1112 30.9336C37.3025 31.013 37.4536 31.1441 37.5657 31.3272C37.6764 31.5103 37.7323 31.7293 37.7318 31.9822C37.731 32.2171 37.6858 32.4452 37.5965 32.667C37.5072 32.8884 37.3973 33.0656 37.2676 33.1983C37.1381 33.3309 36.9983 33.4324 36.8496 33.5003C36.7005 33.5684 36.5 33.6209 36.2467 33.656C36.1006 33.6769 35.825 33.6861 35.4216 33.6854L34.8231 33.684L34.4554 35.4554ZM34.9795 32.9133L35.2688 32.9143C35.7623 32.9153 36.0929 32.8849 36.2583 32.8214C36.4235 32.7589 36.5554 32.6576 36.6498 32.5182C36.7455 32.3789 36.7934 32.2264 36.7936 32.0589C36.7941 31.9472 36.77 31.8553 36.7214 31.7836C36.6729 31.7112 36.6052 31.659 36.5176 31.6265C36.4296 31.5926 36.2335 31.5759 35.9295 31.5754L35.2591 31.574L34.9795 32.9133ZM39.8264 33.6446C39.827 33.371 39.8689 33.0813 39.9503 32.7773C40.0559 32.3695 40.2176 32.0161 40.4347 31.716C40.6515 31.4167 40.9253 31.1803 41.254 31.0068C41.5839 30.8324 41.9581 30.7467 42.3784 30.7477C42.941 30.7491 43.395 30.9284 43.7406 31.2862C44.0871 31.6443 44.2587 32.1188 44.2575 32.7071C44.2563 33.1982 44.1429 33.672 43.916 34.1302C43.6896 34.5886 43.3825 34.9403 42.9954 35.1863C42.607 35.433 42.1691 35.5556 41.6808 35.5542C41.2573 35.5532 40.9017 35.4541 40.6139 35.2575C40.3271 35.0597 40.1245 34.816 40.0044 34.5246C39.8853 34.2346 39.8256 33.9411 39.8264 33.6446ZM40.7505 33.6283C40.7495 33.9475 40.8444 34.2149 41.0344 34.4307C41.2247 34.6466 41.4743 34.7553 41.7847 34.7561C42.0366 34.7565 42.2796 34.6716 42.5131 34.5025C42.7465 34.333 42.939 34.0761 43.092 33.7301C43.2446 33.3853 43.3216 33.0488 43.3223 32.7213C43.323 32.3554 43.2272 32.0686 43.0362 31.8604C42.8437 31.6511 42.5995 31.5466 42.3009 31.5459C41.8442 31.5447 41.4719 31.7615 41.1838 32.197C40.8968 32.6311 40.7514 33.108 40.7505 33.6283ZM44.1227 35.4776L45.0871 30.8331L48.2711 30.8403L48.1073 31.6168L45.8605 31.6115L45.6278 32.7265L47.8324 32.7316L47.6717 33.5081L45.4685 33.5031L45.0601 35.4797L44.1227 35.4776ZM53.0844 33.8247L54.0276 33.9729C53.8421 34.4939 53.5647 34.8923 53.1965 35.1676C52.8273 35.4426 52.3959 35.5791 51.9012 35.5779C51.3451 35.5764 50.9101 35.4046 50.5973 35.0619C50.2844 34.7181 50.129 34.2215 50.1305 33.5708C50.1316 33.0419 50.2378 32.5597 50.4495 32.121C50.6601 31.6831 50.9524 31.3486 51.3247 31.1169C51.6981 30.8852 52.104 30.7704 52.5427 30.7711C53.0351 30.7723 53.433 30.9073 53.7365 31.1776C54.0401 31.4475 54.2182 31.8159 54.2711 32.2801L53.3736 32.3669C53.3245 32.0962 53.2297 31.8999 53.0879 31.7789C52.9463 31.6571 52.7578 31.596 52.5215 31.5955C52.2631 31.595 52.0215 31.6744 51.7965 31.8343C51.5715 31.9947 51.3921 32.2454 51.2566 32.5859C51.1213 32.9262 51.053 33.2672 51.052 33.6076C51.0513 33.9801 51.1384 34.267 51.3126 34.4708C51.4869 34.6734 51.7049 34.7759 51.9655 34.7764C52.2068 34.7768 52.4298 34.6974 52.6312 34.5365C52.8341 34.3769 52.985 34.1392 53.0844 33.8247ZM54.3353 33.6786C54.336 33.4047 54.3779 33.1151 54.4592 32.8111C54.5651 32.4033 54.7268 32.0498 54.9436 31.7495C55.1604 31.4504 55.4342 31.2141 55.7629 31.0409C56.0929 30.8662 56.467 30.7805 56.8874 30.7817C57.45 30.7829 57.904 30.9624 58.2496 31.3202C58.596 31.6783 58.7679 32.1525 58.7664 32.7409C58.7652 33.232 58.6522 33.7058 58.4253 34.164C58.1986 34.6223 57.8916 34.9741 57.5044 35.22C57.1162 35.4666 56.6783 35.5894 56.1901 35.5882C55.7661 35.5873 55.4105 35.4879 55.1229 35.2913C54.8363 35.0937 54.6334 34.8497 54.5136 34.5586C54.3943 34.2684 54.3346 33.9748 54.3353 33.6786ZM55.2602 33.6621C55.2594 33.9812 55.354 34.2487 55.5441 34.4646C55.7342 34.6802 55.9839 34.789 56.2946 34.7897C56.5466 34.7904 56.7893 34.7055 57.023 34.5361C57.2564 34.3666 57.4487 34.1097 57.602 33.7639C57.7543 33.419 57.8313 33.0827 57.8319 32.755C57.833 32.3892 57.7372 32.1024 57.5461 31.894C57.3533 31.6849 57.1091 31.5802 56.8105 31.5795C56.354 31.5785 55.9816 31.7951 55.6935 32.2306C55.4062 32.6647 55.2611 33.1416 55.2602 33.6621ZM61.2595 35.5174L60.3719 35.5153L60.2164 31.6321L59.4842 35.5134L58.6399 35.5113L59.6009 30.8665L60.9345 30.8695L61.0666 34.1255L62.6263 30.8737L63.977 30.8766L63.0128 35.5216L62.1588 35.5194L63.0653 31.6665L61.2595 35.5174ZM64.5358 35.5256L63.5983 35.5232L64.5622 30.8786L66.4122 30.8827C66.7404 30.8837 67.0007 30.9241 67.1913 31.0035C67.3829 31.0832 67.534 31.2143 67.6461 31.3977C67.7568 31.5805 67.8124 31.7993 67.8119 32.0524C67.8114 32.2872 67.7661 32.5156 67.6764 32.7369C67.5871 32.9586 67.4777 33.1357 67.348 33.2682C67.2187 33.4011 67.0785 33.5026 66.93 33.5705C66.7806 33.6384 66.5804 33.6908 66.327 33.726C66.181 33.7474 65.9054 33.7565 65.5019 33.7555L64.9035 33.7541L64.5358 35.5256ZM65.0583 32.9834L65.3473 32.9841C65.8411 32.9853 66.1717 32.9547 66.337 32.8915C66.5024 32.8289 66.6339 32.7277 66.7285 32.5883C66.8243 32.449 66.8722 32.2964 66.8726 32.1287C66.8729 32.0171 66.8489 31.9254 66.8 31.8537C66.7514 31.781 66.684 31.7291 66.5959 31.6965C66.5081 31.6626 66.3122 31.646 66.0083 31.6455L65.338 31.6438L65.0583 32.9834ZM70.0134 34.5114L68.2094 34.5071L67.6615 35.5324L66.6997 35.5302L69.2823 30.8895L70.3226 30.8917L71.0502 35.5406L70.1625 35.5384L70.0134 34.5114ZM69.8995 33.7378L69.6401 31.8662L68.5371 33.7344L69.8995 33.7378ZM74.9194 35.5492L74.0464 35.547L72.825 32.4221L72.1789 35.5427L71.3073 35.5406L72.2667 30.896L73.1421 30.8979L74.3666 34.0104L75.0106 30.9023L75.8792 30.9044L74.9194 35.5492ZM75.4932 35.5509L76.4564 30.9062L77.3908 30.9083L76.4309 35.5531L75.4932 35.5509ZM76.9637 35.554L77.9248 30.9095L81.2977 30.9172L81.1381 31.6937L78.7017 31.6879L78.482 32.7426L80.8368 32.7482L80.6771 33.5246L78.3214 33.5191L78.0336 34.7798L80.6807 34.786L80.5177 35.5625L76.9637 35.554ZM81.0111 34.0575L81.9019 34.012C81.913 34.3023 81.9616 34.4981 82.0458 34.599C82.182 34.7647 82.4351 34.8475 82.8026 34.8484C83.1089 34.8492 83.3305 34.7931 83.4672 34.6822C83.6038 34.5701 83.6731 34.4349 83.6736 34.277C83.6741 34.1398 83.618 34.0224 83.5059 33.9273C83.428 33.8575 83.2121 33.7435 82.8596 33.5868C82.5074 33.4295 82.2501 33.2991 82.0882 33.1937C81.9265 33.0883 81.7985 32.9528 81.7058 32.7858C81.6129 32.6179 81.5667 32.4232 81.5672 32.1994C81.5682 31.8074 81.7077 31.4843 81.9859 31.2264C82.2638 30.9693 82.6659 30.8418 83.1912 30.843C83.7252 30.8442 84.138 30.9727 84.4299 31.2288C84.7216 31.486 84.8816 31.8259 84.9102 32.2514L84.0132 32.2904C83.9901 32.0683 83.9121 31.8972 83.7778 31.7791C83.6438 31.6607 83.4458 31.601 83.1827 31.6005C82.9246 31.5995 82.739 31.6455 82.6288 31.7384C82.5175 31.8315 82.4619 31.948 82.4616 32.0897C82.4611 32.2228 82.5119 32.3332 82.6135 32.4201C82.7138 32.5091 82.9381 32.6308 83.285 32.7864C83.8091 33.018 84.1414 33.205 84.2839 33.3489C84.4964 33.5619 84.6027 33.8335 84.602 34.1646C84.601 34.5747 84.4413 34.9248 84.1226 35.2137C83.804 35.5042 83.3623 35.6483 82.7944 35.6469C82.4034 35.6461 82.0648 35.5783 81.7792 35.4433C81.4924 35.3083 81.2902 35.1219 81.1733 34.8824C81.0564 34.6433 81.0017 34.3692 81.0111 34.0575Z" fill="#2B3968"/>
<path d="M7.0792 16.5603C-5.12127 26.3758 -1.02225 34.9779 15.1728 35.0919C14.416 33.2298 15.0571 31.2314 16.1132 30.491C2.18941 31.4693 -2.03305 26.9172 6.81396 18.0925C6.88371 17.589 6.97208 17.0777 7.0792 16.5603Z" fill="#EC1C24"/>
<path d="M29.152 7.87715C29.2266 8.21574 29.2931 8.55964 29.3512 8.90847C37.7292 6.60907 47.5238 4.70271 58.0576 3.45694C90.2824 -0.354134 117.222 3.46001 118.229 11.9761C118.478 14.0771 117.125 16.2679 114.461 18.4337C118.782 15.6906 121.089 12.8534 120.771 10.1636C119.764 1.64753 92.8242 -2.16662 60.5993 1.64445C48.8943 3.02874 38.1021 5.22866 29.152 7.87715Z" fill="#EC1C24"/>
</svg>
