<svg width="151" height="41" viewBox="0 0 151 41" fill="none" xmlns="http://www.w3.org/2000/svg">
<path fill-rule="evenodd" clip-rule="evenodd" d="M11.7743 20.3962L12.144 19.452L12.1821 19.8787L11.813 20.797L11.7536 20.6855L11.833 20.4492L11.7743 20.3962ZM29.7559 4.43703L30.2746 4.34644L31.1207 4.63083C31.3764 4.81491 31.5465 4.97302 31.638 5.11746L31.9075 4.94119L31.2519 4.57837L31.8097 4.7898L32.5371 5.19171L31.7319 4.40242L32.4851 4.94215C32.9432 5.52119 33.1719 5.84971 33.1719 5.92845C33.1716 6.0793 33.2888 6.53901 33.5165 7.31399C33.5883 7.59646 33.6271 7.85212 33.6264 8.08224L33.6241 9.17826L33.5302 10.064L33.4514 9.98529L33.3517 10.4838L33.4917 9.71639L33.5737 8.27241C33.5602 8.24613 33.508 8.12134 33.4169 7.89143C33.3514 7.74699 33.3124 7.67467 33.3057 7.67467C33.2794 7.67467 33.2467 7.694 33.207 7.73343L33.2094 6.69649L33.1498 6.96539L33.0901 7.27403L33.0338 8.8288L32.9354 8.80904L32.9336 9.54439L32.8751 9.46533L32.8157 9.48466L32.7231 9.86542L32.4311 11.3677L32.1786 12.5749L32.0408 12.6333L31.479 14.3256L31.0181 14.8825L30.9587 15.1314L30.5571 15.4195L30.2476 15.9567L30.1486 16.1469L30.1889 15.8976L30.4594 15.2093L30.4614 14.3822L30.6141 13.6476L30.5423 13.418L30.2541 13.1872L29.6771 12.8971L29.4487 12.3387L29.3112 12.2663L29.1805 11.9577L28.3882 11.1089L28.4094 10.5313L28.4694 10.1243C28.3716 9.86842 28.3131 9.60549 28.3007 9.33659L28.2017 9.45443L28.1236 9.27698L28.0118 9.29631L28.0115 9.47377L27.6439 9.58466L27.6044 9.53167L27.8771 8.04923C27.7129 8.11408 27.5681 8.17316 27.4564 8.23854C27.2986 8.34335 27.1672 8.48747 27.0485 8.68404L27.2266 8.31696L26.4716 8.37422L25.5318 8.92966L25.1243 9.2179C24.7693 9.43328 24.3483 9.72793 23.8747 10.0944L22.8166 10.9384L21.6589 11.9398L21.3697 12.1884L20.6592 12.8762L19.5998 13.9698L18.7116 14.9849L18.9012 15.143L18.6122 15.2738L18.0523 16.1781L17.4533 17.0233L15.7929 19.7894L15.4301 20.576L15.139 21.3633L15.1193 21.5205L14.9809 21.7891L14.9606 21.9399L14.8683 22.0777L14.5169 23.7112L14.4037 24.4196L14.3622 25.3781L14.5106 26.494L14.6475 26.7308L14.778 27.0331C14.9421 27.1909 15.0463 27.3353 15.0857 27.4797V27.4406L15.2753 27.7099L15.5048 27.8286L15.4849 27.9403L16.0291 28.2696L17.334 28.693L17.5054 28.503L17.4261 28.693L18.9503 27.9679L20.718 27.0469L20.2979 27.2229L17.8924 28.6417L18.3125 28.4852L20.5865 27.2235L21.0468 26.9555L21.0661 26.8964L21.1056 26.9162L21.9928 26.3998L22.0846 26.4395L22.7218 26.1324L23.3203 25.7466L23.0104 26.2054L24.2067 25.5189L24.4171 25.3687L25.5146 24.6951L25.2844 24.8847L25.2651 24.9631L25.3365 25.1539L27.8994 23.7421L26.4334 24.7763L25.3554 25.5019L24.0079 26.4043L24.1845 26.5755L25.2623 26.0204L26.7411 25.1049L27.1881 24.8496L28.2269 24.1827L28.2262 24.4716L28.5148 24.3738L28.7056 24.243L29.4218 23.9562L30.3809 23.4396L30.4197 23.6694L29.9794 24.0492L28.3943 25.4892L29.282 24.8744L27.894 26.0461L28.1042 26.1054L26.8943 26.9692L25.468 27.8846L24.3701 28.6172C24.0219 28.8194 23.7524 28.9573 23.5619 29.0351L23.1415 29.1527C22.9444 29.2244 22.8393 29.2765 22.8132 29.3031C22.6815 29.3813 22.6027 29.427 22.5697 29.4464C22.537 29.4663 22.5108 29.4858 22.4844 29.4924L20.6389 29.9936L19.234 30.1411L18.7352 30.1599L18.5774 30.238L18.1774 30.1781L17.672 30.1968C17.6129 30.1966 17.4421 30.1765 17.1732 30.1362L16.7141 30.0566C16.7008 30.0432 16.6811 30.0366 16.6481 30.0302C16.6156 30.0239 16.5826 30.0166 16.5629 30.017C16.5239 30.0102 16.4909 29.997 16.4645 29.9906C16.4385 29.9836 16.3728 29.9703 16.2744 29.9442L15.0222 29.4751L13.4676 28.9003L13.199 28.6832L13.1596 28.7026C13.0419 28.5648 12.9631 28.4858 12.9107 28.4724L12.583 28.3404L11.7975 27.4525L11.6273 27.262L11.5492 26.9334L11.0537 25.5476L11.1709 23.1454L11.2905 22.4698L11.4023 22.4308L11.3308 22.1813L11.6409 21.3942L11.792 21.2237L11.6007 21.8142L11.3874 23.1064L11.2851 24.8129L11.571 26.1787L11.4168 24.6624L11.617 23.1664L11.6581 22.4901L11.6585 22.2999L11.7506 22.2212L11.7115 22.0832L11.8699 21.6637L12.2009 20.5289C12.2869 20.2734 12.5043 19.8076 12.8538 19.1262L12.9531 18.7985L13.0846 18.6868L13.223 18.3788L13.355 18.169L13.3223 18.1096L13.4934 17.8803L13.7838 17.3037L13.7248 17.1132V17.1853L13.2641 17.5911L13.0663 18.0503C13.133 17.6829 13.232 17.3943 13.3571 17.1847L13.9171 16.2865L13.9967 15.9979L13.8065 15.8595L13.7475 15.9776L13.4389 15.9964L12.7802 16.9336L12.0888 17.9887L11.0664 20.0671L10.5449 21.4705L11.0274 19.9093L12.1682 17.6871L13.0179 16.2644L13.8492 14.5537L14.7904 13.3289L15.5799 12.4443L16.7777 11.1934L17.0865 10.9841L18.3557 9.7791L19.033 9.25604L20.6313 7.97295L23.037 6.42331L24.5221 5.71136L24.2324 6.01904L24.3041 6.28827L23.5537 7.23194L23.5528 7.59956L22.2639 8.51503L21.8236 8.94109L20.528 9.95506L19.6274 10.7409L18.9097 11.4874L18.1202 12.332L17.7126 12.7181L17.1925 13.3147L15.8434 14.8865L15.5342 15.2862L15.0136 16.0724L13.8217 17.8616L13.2811 18.8382L12.991 19.5136L12.5615 20.6283L12.4489 21.1465L12.3102 21.3366L12.1976 22.0517L11.9804 22.1628L11.9795 22.6089L11.8877 22.5299L11.706 24.4331L11.7057 24.584C11.7055 24.663 11.7441 24.8926 11.8223 25.2799C11.822 25.3193 11.8414 25.4641 11.8801 25.7196C11.8801 25.7984 11.8993 25.9238 11.9386 26.1072L11.9417 24.6637L12.1963 22.5307L12.6791 20.9569L12.8702 20.5308L13.3199 19.2649L13.8601 18.2492L15.1514 16.1124L16.4025 14.4086L17.0212 13.7536L17.7519 12.7908L18.1198 12.4895L19.8763 10.7022L20.2976 10.2827L21.376 9.39898L22.0532 8.92143L23.6903 7.75031C24.1109 7.46933 24.5249 7.26036 24.9193 7.11677L26.4437 6.2934L27.2124 6.0653L27.5209 5.95484L27.5203 6.16466L27.8289 6.1653L28.0978 6.20526L28.4004 5.83881L28.7677 5.97727L28.8667 5.76104L29.2477 5.63049L29.2677 5.49267L29.4058 5.51265L29.3279 5.13231L29.1772 5.05294L29.4464 4.9352L29.6765 4.72559L30.2544 4.64835C30.4445 4.64867 30.6286 4.70166 30.8115 4.80711C30.8576 4.83371 30.9039 4.85305 30.943 4.86672C30.956 4.86672 30.9757 4.87303 31.0017 4.89279C31.0281 4.91277 31.0477 4.92548 31.0608 4.93905C31.1005 4.9524 31.1529 4.99183 31.2313 5.05785L31.022 4.78831L30.5823 4.5178L30.1565 4.41823L30.0053 4.53607L29.8673 4.51598L29.7559 4.43703ZM38.5722 21.3167L37.7008 25.3705C37.5461 26.0792 37.4129 26.8138 37.3066 27.5752C37.1997 28.3362 37.1058 29.1191 37.0252 29.9328C36.5615 29.8704 36.133 29.8259 35.7306 29.7944C35.3278 29.7626 34.9644 29.7487 34.6406 29.7477C34.3257 29.7472 33.9672 29.7596 33.5644 29.7893C33.1616 29.819 32.724 29.8613 32.2556 29.9219C33.2313 26.2488 34.0353 22.8854 34.6682 19.8331C35.3054 16.7759 35.7406 14.1642 35.9774 11.9948C36.6949 12.075 37.2024 12.1247 37.504 12.1516C37.8014 12.1783 38.0555 12.1922 38.2566 12.1928C38.576 12.1934 38.9392 12.1767 39.3553 12.1386C39.7708 12.1044 40.2174 12.0616 40.6945 12.0056C40.368 13.0774 40.0588 14.2927 39.7623 15.6573C39.7268 15.8017 39.7051 15.9065 39.6872 15.9768L38.971 19.1644C39.6932 19.1927 40.3582 19.2159 40.9749 19.2308C41.5875 19.245 42.1474 19.2508 42.6508 19.2519C42.9088 19.2526 43.3204 19.2493 43.8849 19.2374C44.4491 19.2257 45.1492 19.2054 45.9853 19.1808L46.5426 16.5963C46.6885 15.9011 46.826 15.1703 46.9459 14.3965C47.0659 13.6264 47.1725 12.8345 47.2572 12.021C47.73 12.0793 48.1676 12.1237 48.5701 12.1601C48.9768 12.2004 49.3399 12.2186 49.6548 12.2191C49.961 12.2197 50.3202 12.2034 50.7272 12.1692C51.13 12.1352 51.5719 12.0925 52.04 12.032C51.0643 15.7058 50.2602 19.0727 49.6272 22.1299C48.9904 25.1874 48.5556 27.7984 48.3184 29.9592C47.8681 29.8968 47.4571 29.8522 47.0938 29.821C46.7306 29.7893 46.4332 29.7753 46.1922 29.7748C45.8863 29.7741 45.5319 29.7865 45.1422 29.8117C44.7482 29.8368 44.2274 29.8796 43.5754 29.9483C43.7477 29.3057 43.9151 28.6715 44.0741 28.0462C44.2331 27.4163 44.4012 26.7296 44.5735 25.9859L45.5819 21.3328C45.5166 21.3328 45.4111 21.3283 45.2757 21.3237C43.6698 21.2583 42.5018 21.225 41.7756 21.2232C41.4427 21.2225 40.9967 21.2304 40.4409 21.2464C39.8853 21.2628 39.2638 21.2874 38.5722 21.3167ZM58.3261 20.1861C58.4224 20.1952 58.5275 20.2042 58.6455 20.209C58.7679 20.2133 58.9475 20.2139 59.1837 20.2145C60.6625 20.2178 61.8051 19.8878 62.6121 19.2246C63.4143 18.5571 63.8189 17.6086 63.822 16.3702C63.8238 15.482 63.5764 14.8297 63.0825 14.4127C62.5895 13.9961 61.8109 13.7883 60.7518 13.7858C60.6164 13.7855 60.472 13.7853 60.3233 13.7891C60.1743 13.7934 60.008 13.8016 59.8287 13.8101C59.7494 14.1075 59.6655 14.4396 59.5683 14.807C59.4753 15.1743 59.3738 15.5898 59.2725 16.049L58.3261 20.1861ZM51.9462 29.9679C53.0144 25.9448 53.8805 22.3283 54.5401 19.1224C55.2039 15.9126 55.5767 13.555 55.6681 12.0411C56.0704 12.0768 56.4773 12.0999 56.8974 12.1184C57.3175 12.1368 57.7592 12.1465 58.2317 12.1478C58.761 12.1489 59.4658 12.1329 60.3498 12.1001C61.238 12.0714 61.8552 12.0553 62.205 12.056C64.2049 12.0608 65.687 12.4188 66.6609 13.1298C67.6352 13.8409 68.1182 14.9229 68.1148 16.3756C68.1119 17.8372 67.667 18.9822 66.7814 19.8074C65.8954 20.6369 64.6037 21.106 62.9146 21.2247C63.4926 22.7359 64.0887 24.2246 64.711 25.6831C65.329 27.1416 65.9777 28.5832 66.6482 30.0022C66.5695 29.9935 66.4647 29.9798 66.329 29.962C65.0386 29.8323 64.2031 29.7645 63.8176 29.7636C63.5336 29.7629 63.214 29.7799 62.8548 29.8093C62.4963 29.835 62.0018 29.8996 61.367 29.9901C61.0026 28.475 60.6081 27.0347 60.1781 25.6683C59.7522 24.2976 59.2871 22.9797 58.7871 21.7141L58.0827 21.7126L57.4713 24.8394C57.3828 25.2506 57.272 25.9069 57.1387 26.8124C57.0055 27.7179 56.8626 28.776 56.7157 29.9792C56.2302 29.9166 55.7754 29.872 55.3553 29.8405C54.9395 29.809 54.5634 29.7948 54.2263 29.7938C53.929 29.7933 53.2197 29.8487 52.0992 29.9552L51.9462 29.9679ZM76.9427 12.0904C76.021 15.2605 75.252 18.357 74.6327 21.3787C74.0174 24.4054 73.5643 27.2838 73.2866 30.0175C72.7921 29.9551 72.3287 29.91 71.9041 29.8788C71.4756 29.8473 71.0904 29.8328 70.7491 29.8322C70.478 29.8316 70.1583 29.844 69.7994 29.8691C69.4406 29.8949 68.9766 29.9373 68.4036 30.0063C69.3878 26.4334 70.1961 23.0837 70.8379 19.9611C71.4753 16.8338 71.8971 14.2094 72.0988 12.0789C72.567 12.1373 72.9958 12.1818 73.3804 12.2178C73.7654 12.2581 74.0719 12.2763 74.3038 12.2766C74.7105 12.2778 75.1397 12.2614 75.59 12.2273C76.0367 12.1934 76.4916 12.1507 76.9427 12.0904ZM76.3954 28.8696C76.6026 28.2531 76.8055 27.5968 77.0084 26.8888C77.211 26.1846 77.423 25.4018 77.6395 24.5409L77.9327 24.6941C78.1349 26.012 78.592 27.0017 79.3081 27.6731C80.0243 28.3396 80.9858 28.6743 82.1893 28.6773C83.06 28.6795 83.7735 28.4492 84.3304 27.9822C84.8873 27.5199 85.1645 26.9208 85.166 26.1858C85.1678 25.3981 84.444 24.3858 82.9985 23.1441C82.8631 23.0299 82.7626 22.951 82.706 22.8985C81.0771 21.5207 80.0337 20.455 79.5716 19.7057C79.1138 18.9565 78.8839 18.1464 78.886 17.2757C78.8896 15.6783 79.4617 14.3581 80.6061 13.3236C81.7505 12.2895 83.2263 11.7722 85.0379 11.7768C86.0091 11.7789 86.9454 11.8861 87.8419 12.098C88.7383 12.3104 89.5992 12.6274 90.4169 13.045C90.1922 13.5823 89.9856 14.1377 89.7958 14.7061C89.6064 15.2701 89.426 15.8736 89.2537 16.5031L88.9475 16.4241C88.7264 15.4868 88.3037 14.7594 87.6747 14.2503C87.0505 13.7416 86.2676 13.486 85.3271 13.4836C84.5088 13.4817 83.8562 13.6907 83.3695 14.1092C82.8874 14.5238 82.6454 15.0832 82.6439 15.7836C82.6418 16.6061 83.5013 17.7236 85.2217 19.1497C85.3574 19.2596 85.471 19.3474 85.5539 19.4174C86.9119 20.5497 87.8024 21.4664 88.234 22.1674C88.6656 22.8683 88.8785 23.6344 88.8763 24.4615C88.8721 26.2861 88.2516 27.7288 87.0154 28.7936C85.7789 29.8581 84.0887 30.3884 81.9531 30.3833C80.9468 30.3811 79.9759 30.2521 79.0444 29.9959C78.1131 29.7442 77.23 29.366 76.3954 28.8696ZM97.4971 30.0743C98.3838 26.913 99.1394 23.8297 99.7548 20.8253C100.374 17.816 100.845 14.925 101.166 12.1471C101.953 12.2103 102.75 12.2559 103.555 12.2927C104.364 12.33 105.174 12.3491 105.988 12.3509C106.618 12.3521 107.357 12.3409 108.211 12.3125C109.06 12.2836 110.228 12.2385 111.715 12.1717C111.544 12.5126 111.412 12.8709 111.315 13.2382C111.222 13.6098 111.16 14.0256 111.133 14.4762C110.341 14.3563 109.576 14.2631 108.845 14.1997C108.114 14.1413 107.41 14.1089 106.728 14.1071C106.417 14.1064 105.975 14.1231 105.393 14.1564H105.327C105.138 14.6068 104.931 15.3763 104.709 16.4613L104.696 16.5352L104.111 19.5228C104.334 19.5406 104.637 19.5588 105.021 19.573C105.756 19.6185 106.22 19.6411 106.417 19.6415C107.034 19.6426 108.054 19.6018 109.48 19.5218C109.669 19.5049 109.8 19.4967 109.878 19.497C109.751 19.829 109.654 20.1566 109.587 20.4761C109.525 20.7998 109.49 21.1236 109.489 21.4603L109.475 21.8058C108.714 21.7253 107.948 21.6672 107.169 21.6211C106.39 21.576 105.625 21.5518 104.864 21.5506C104.737 21.55 104.544 21.5536 104.29 21.562C104.041 21.5703 103.844 21.5742 103.708 21.5739L102.97 24.9984C102.823 25.6719 102.713 26.2494 102.633 26.7215C102.553 27.1985 102.5 27.618 102.464 27.9856C103.387 27.979 104.372 27.9504 105.426 27.896C106.477 27.842 107.649 27.7657 108.949 27.6682C108.822 28.0265 108.711 28.4029 108.618 28.7966C108.53 29.1855 108.45 29.6227 108.379 30.0994C107.259 30.0446 106.222 30.007 105.259 29.9786C104.297 29.9498 103.422 29.935 102.639 29.9332C102.083 29.9319 101.374 29.9431 100.508 29.9674C99.6457 29.9919 98.6436 30.0247 97.4971 30.0743ZM108.33 34.4315C108.19 34.2256 108.073 34.0018 107.964 33.7568C107.859 33.5157 107.772 33.2529 107.703 32.9815C108.876 32.9582 109.729 32.7762 110.273 32.4318C110.816 32.083 111.233 31.4582 111.515 30.553C111.767 29.7533 112.023 28.7606 112.284 27.584C112.549 26.4032 112.868 24.8242 113.24 22.8428L113.382 22.0599C114.299 17.2138 114.761 13.9202 114.765 12.1786C115.26 12.2413 115.728 12.2861 116.165 12.3224C116.607 12.3582 116.984 12.3763 117.303 12.3772C117.592 12.3778 117.933 12.3612 118.327 12.327C118.721 12.293 119.149 12.2504 119.609 12.1898C119.34 13.0077 119.036 14.2061 118.691 15.7848C118.346 17.3592 117.726 20.4902 116.835 25.1837C116.773 25.4632 116.703 25.879 116.614 26.426C116.215 28.7221 115.734 30.3528 115.167 31.3186C114.548 32.3759 113.697 33.1617 112.611 33.6711C111.524 34.1804 110.172 34.4354 108.557 34.4318L108.33 34.4315ZM128.478 12.2106C127.556 15.3807 126.787 18.4773 126.168 21.499C125.553 24.5252 125.1 27.4038 124.822 30.1378C124.327 30.0754 123.864 30.0302 123.44 29.9991C123.011 29.9676 122.626 29.9531 122.284 29.9524C122.013 29.9518 121.694 29.9643 121.335 29.9894C120.976 30.0151 120.512 30.0576 119.939 30.1263C120.923 26.5537 121.731 23.204 122.373 20.0817C123.011 16.9542 123.433 14.3295 123.634 12.1993C124.102 12.2576 124.531 12.302 124.916 12.3381C125.301 12.3784 125.607 12.3962 125.839 12.3969C126.246 12.3981 126.675 12.3817 127.125 12.3475C127.572 12.3135 128.027 12.2708 128.478 12.2106ZM137.02 12.2566C136.804 12.8202 136.61 13.4283 136.433 14.0888C136.257 14.7445 136.062 15.5885 135.858 16.6121L135.092 20.4433L138.662 17.2746C139.236 16.7683 139.929 16.0875 140.736 15.2275C141.548 14.3625 142.438 13.3716 143.404 12.2447C143.806 12.2984 144.139 12.3386 144.397 12.3698C144.659 12.401 144.86 12.4149 145.009 12.4152C145.21 12.4156 145.459 12.4029 145.753 12.3728C146.041 12.3432 146.379 12.3048 146.764 12.2526L146.737 12.5722C145.154 13.9031 143.664 15.2032 142.274 16.4782C140.883 17.7522 139.581 19.0006 138.375 20.2188C139.154 21.879 139.96 23.5346 140.788 25.1818C141.611 26.8289 142.469 28.4936 143.362 30.1804C142.85 30.1271 142.391 30.0866 141.979 30.0635C141.568 30.0363 141.205 30.0226 140.89 30.0218C140.549 30.0208 140.155 30.033 139.709 30.0584C139.266 30.0793 138.776 30.1175 138.247 30.169C137.703 28.7062 137.142 27.3265 136.567 26.0255C135.988 24.7248 135.379 23.4937 134.742 22.3412L134.133 25.0176C133.978 25.7439 133.832 26.5355 133.698 27.3886C133.561 28.2414 133.44 29.1641 133.324 30.1571C132.847 30.0947 132.401 30.05 131.99 30.0188C131.583 29.9869 131.215 29.9727 130.887 29.9721C130.581 29.9714 130.235 29.9839 129.85 30.0135C129.465 30.0429 129.041 30.086 128.581 30.1462C129.583 26.381 130.405 22.9217 131.047 19.7683C131.693 16.615 132.101 14.1003 132.276 12.219C132.753 12.2817 133.182 12.3266 133.554 12.3619C133.926 12.398 134.223 12.4162 134.455 12.4169C134.805 12.4177 135.199 12.4053 135.628 12.3759C136.061 12.3459 136.525 12.3075 137.02 12.2566Z" fill="white"/>
<path fill-rule="evenodd" clip-rule="evenodd" d="M23.599 36.9213L26.1614 36.927L25.6399 39.4357C25.3364 39.6338 24.9655 39.8015 24.5264 39.9394C24.0878 40.0762 23.6408 40.1447 23.185 40.1434C22.4771 40.1416 21.935 39.9772 21.5567 39.6492C21.0431 39.2017 20.786 38.553 20.7881 37.7044C20.7896 37.1354 20.9017 36.5908 21.124 36.0697C21.3919 35.4428 21.7704 34.9576 22.2602 34.6127C22.7504 34.268 23.3271 34.0967 23.9882 34.0982C24.6493 34.0996 25.1796 34.2574 25.579 34.573C25.977 34.8868 26.2411 35.3452 26.3703 35.9458L25.2731 36.0715C25.1759 35.7417 25.0224 35.4921 24.808 35.3241C24.5924 35.156 24.3232 35.0721 23.9979 35.0715C23.6166 35.0706 23.2686 35.1706 22.9492 35.3713C22.6314 35.5737 22.3828 35.8846 22.2017 36.308C22.021 36.7293 21.9307 37.191 21.9292 37.691C21.9282 38.1837 22.0367 38.5478 22.2551 38.7834C22.4731 39.0196 22.7925 39.1375 23.2154 39.1386C23.4673 39.1393 23.726 39.1026 23.9927 39.0302C24.2583 38.9584 24.4876 38.8719 24.6799 38.7704L24.858 37.9015L23.3968 37.8982L23.599 36.9213ZM27.4062 40.0539L26.2278 40.0512L27.4398 34.2055L29.9821 34.2112C30.4197 34.2125 30.7607 34.26 31.003 34.3515C31.2471 34.4444 31.4442 34.6125 31.5926 34.8578C31.7413 35.1019 31.8152 35.3987 31.8143 35.7476C31.8133 36.2445 31.6671 36.6555 31.3742 36.9777C31.0817 37.2996 30.6398 37.4991 30.0487 37.5752C30.1996 37.7127 30.3416 37.8956 30.473 38.1221C30.7362 38.58 31.0263 39.2275 31.3482 40.063L30.0821 40.0603C29.9812 39.7302 29.7841 39.215 29.4882 38.5146C29.328 38.137 29.1565 37.8819 28.9743 37.752C28.8625 37.6745 28.6681 37.6358 28.3891 37.6351L27.9091 37.634L27.4062 40.0539ZM28.0897 36.756L28.7147 36.7575C29.3479 36.7589 29.768 36.7214 29.9748 36.6445C30.1819 36.5685 30.3445 36.448 30.4624 36.2832C30.5789 36.1175 30.6377 35.9458 30.638 35.7647C30.639 35.5513 30.5548 35.3917 30.3863 35.2851C30.2822 35.2205 30.0568 35.189 29.7105 35.1885L28.4146 35.1852L28.0897 36.756ZM31.93 37.7701C31.9306 37.4254 31.9834 37.0606 32.0857 36.6783C32.2189 36.1651 32.4224 35.7201 32.6956 35.3422C32.9682 34.9658 33.313 34.6681 33.7268 34.4501C34.142 34.2305 34.6129 34.1227 35.1419 34.1239C35.8496 34.1254 36.4214 34.3517 36.8563 34.802C37.2924 35.2526 37.5086 35.8492 37.5068 36.59C37.5052 37.208 37.3626 37.804 37.077 38.3809C36.7918 38.9579 36.4057 39.4006 35.9184 39.7104C35.4296 40.0204 34.8788 40.1746 34.2643 40.1731C33.7306 40.1722 33.2831 40.0471 32.9212 39.7997C32.5603 39.5511 32.3052 39.244 32.1541 38.8776C32.0039 38.512 31.9291 38.1429 31.93 37.7701ZM33.0938 37.7486C33.0929 38.1502 33.2123 38.4869 33.4515 38.7586C33.691 39.03 34.0051 39.1668 34.3957 39.1675C34.7131 39.1683 35.0186 39.0615 35.3128 38.8486C35.6064 38.6353 35.8481 38.3119 36.0414 37.8768C36.233 37.4425 36.3296 37.0195 36.3309 36.607C36.3317 36.1463 36.2112 35.7856 35.9711 35.5233C35.7288 35.2602 35.4211 35.1285 35.0453 35.1276C34.4706 35.126 34.002 35.3989 33.6395 35.947C33.278 36.4934 33.0953 37.0936 33.0938 37.7486ZM38.5656 34.2309L39.7401 34.2339L39.0851 37.408L38.923 38.1887C38.9121 38.2556 38.9067 38.3183 38.9067 38.3767C38.906 38.6084 38.9884 38.7995 39.1531 38.9491C39.3182 39.1008 39.558 39.1765 39.8743 39.1772C40.1577 39.1777 40.3915 39.1235 40.5768 39.0151C40.7628 38.9066 40.9054 38.745 41.0071 38.5291C41.1105 38.3137 41.2137 37.9491 41.3191 37.4334L41.9823 34.239L43.1585 34.2418L42.499 37.44C42.359 38.1123 42.1991 38.6268 42.018 38.9818C41.8373 39.3379 41.5647 39.6275 41.2001 39.85C40.8343 40.0723 40.3743 40.1831 39.8167 40.1819C39.1505 40.1804 38.6402 40.0129 38.2862 39.6786C37.9336 39.3427 37.7574 38.9146 37.7583 38.3903C37.7586 38.2817 37.7683 38.1632 37.7862 38.0349C37.7971 37.9491 37.8431 37.7087 37.9255 37.3096L38.5656 34.2309ZM43.8774 40.0919L42.6977 40.0892L43.9111 34.2432L46.239 34.2487C46.6521 34.2498 46.98 34.3007 47.2199 34.401C47.4607 34.5009 47.6509 34.666 47.792 34.8964C47.9313 35.1268 48.0016 35.4025 48.0009 35.7207C48 36.0164 47.9431 36.3034 47.8308 36.5826C47.7184 36.8612 47.58 37.0842 47.4168 37.2513C47.2539 37.4181 47.0779 37.5459 46.8907 37.6314C46.703 37.7171 46.4507 37.7831 46.1319 37.8273C45.948 37.8536 45.6012 37.8651 45.0934 37.8643L44.3402 37.8625L43.8774 40.0919ZM44.5382 36.893L44.9023 36.8942C45.5233 36.8954 45.9394 36.8572 46.1475 36.7773C46.3555 36.6985 46.5215 36.5711 46.6403 36.3957C46.7608 36.2203 46.821 36.0284 46.8213 35.8176C46.8219 35.6771 46.7916 35.5614 46.7304 35.4711C46.6693 35.38 46.5842 35.3143 46.4739 35.2734C46.3631 35.2307 46.1163 35.2098 45.7338 35.2092L44.8901 35.2073L44.5382 36.893ZM50.6372 37.8128C50.6381 37.4685 50.6907 37.1038 50.7932 36.7213C50.9261 36.208 51.1296 35.7632 51.4028 35.3855C51.6756 35.0088 52.0203 34.7114 52.434 34.493C52.8491 34.2735 53.32 34.1657 53.8491 34.1668C54.5571 34.1686 55.1285 34.3943 55.5635 34.8446C55.9996 35.2952 56.2155 35.8924 56.214 36.6329C56.2125 37.2509 56.0698 37.8473 55.7842 38.4239C55.4993 39.0008 55.1128 39.4435 54.6256 39.753C54.1368 40.0635 53.5856 40.2179 52.9711 40.216C52.4381 40.2149 51.9906 40.0901 51.6284 39.8427C51.2674 39.5937 51.0124 39.287 50.8612 38.9202C50.7113 38.5553 50.6362 38.1859 50.6372 37.8128ZM51.802 37.7922C51.8009 38.194 51.9202 38.5306 52.1594 38.8021C52.3989 39.0738 52.713 39.2107 53.1036 39.2116C53.4207 39.2122 53.7266 39.1053 54.0204 38.8924C54.3142 38.6792 54.5564 38.3558 54.749 37.9203C54.941 37.4864 55.0379 37.063 55.0388 36.6508C55.0397 36.1902 54.9192 35.8292 54.6787 35.5673C54.4365 35.3038 54.1291 35.1723 53.7533 35.1715C53.1785 35.17 52.7099 35.4428 52.3474 35.9909C51.9862 36.5372 51.8032 37.1374 51.802 37.7922ZM56.0432 40.1196L57.257 34.2742L61.2642 34.2833L61.058 35.2605L58.2303 35.2539L57.9374 36.6572L60.712 36.6636L60.5098 37.6408L57.737 37.6345L57.223 40.1223L56.0432 40.1196ZM67.3242 38.0399L68.5113 38.2264C68.2778 38.8821 67.9287 39.3836 67.4653 39.73C67.0007 40.0762 66.4578 40.2478 65.8351 40.2464C65.1352 40.2445 64.5877 40.0283 64.194 39.597C63.8003 39.1643 63.6047 38.5392 63.6065 37.7203C63.608 37.0548 63.7416 36.4478 64.008 35.8957C64.2731 35.3445 64.641 34.9236 65.1095 34.632C65.5795 34.3404 66.0903 34.196 66.6425 34.1968C67.2621 34.1983 67.763 34.3682 68.1449 34.7083C68.527 35.0481 68.7512 35.5117 68.8177 36.0959L67.6882 36.2052C67.6264 35.8645 67.5071 35.6174 67.3287 35.4652C67.1504 35.3119 66.9132 35.2349 66.6158 35.2344C66.2906 35.2338 65.9865 35.3336 65.7034 35.5348C65.4202 35.7367 65.1943 36.0523 65.0238 36.4808C64.8536 36.909 64.7676 37.3382 64.7663 37.7667C64.7655 38.2355 64.8751 38.5965 65.0943 38.853C65.3137 39.108 65.588 39.237 65.916 39.2376C66.2197 39.2381 66.5004 39.1383 66.7539 38.9357C67.0092 38.7348 67.1991 38.4357 67.3242 38.0399ZM68.8984 37.8563C68.8993 37.5116 68.952 37.1471 69.0544 36.7645C69.1876 36.2513 69.3911 35.8064 69.664 35.4284C69.9368 35.052 70.2815 34.7546 70.6951 34.5366C71.1104 34.3167 71.5812 34.2089 72.1104 34.2104C72.8184 34.2119 73.3898 34.4379 73.8248 34.8882C74.2608 35.3388 74.477 35.9357 74.4752 36.6762C74.4737 37.2942 74.3314 37.8906 74.0458 38.4671C73.7606 39.0441 73.3741 39.4868 72.8869 39.7963C72.3983 40.1066 71.8471 40.2611 71.2327 40.2596C70.6991 40.2585 70.2516 40.1333 69.8896 39.8859C69.5289 39.6373 69.2736 39.3302 69.1228 38.9638C68.9726 38.5986 68.8975 38.2291 68.8984 37.8563ZM70.0622 37.835C70.0612 38.2366 70.1803 38.5733 70.4196 38.845C70.6588 39.1164 70.9731 39.2532 71.3641 39.2542C71.6812 39.255 71.9867 39.1482 72.2807 38.935C72.5745 38.7217 72.8165 38.3983 73.0095 37.9632C73.2011 37.5291 73.298 37.1058 73.2989 36.6934C73.3002 36.233 73.1796 35.872 72.9392 35.6098C72.6965 35.3466 72.3892 35.2149 72.0133 35.214C71.4389 35.2127 70.9701 35.4853 70.6076 36.0334C70.246 36.5798 70.0634 37.18 70.0622 37.835ZM77.6124 40.17L76.4953 40.1673L76.2997 35.2801L75.3781 40.1649L74.3155 40.1622L75.525 34.3165L77.2034 34.3204L77.3696 38.4181L79.3326 34.3256L81.0324 34.3292L79.819 40.1753L78.7443 40.1725L79.885 35.3234L77.6124 40.17ZM81.7339 40.1799L80.554 40.1769L81.7672 34.3314L84.0955 34.3366C84.5085 34.3378 84.8362 34.3887 85.076 34.4887C85.3171 34.5889 85.5073 34.7539 85.6484 34.9847C85.7877 35.2148 85.8577 35.4901 85.8571 35.8087C85.8564 36.1042 85.7995 36.3917 85.6866 36.6702C85.5742 36.9492 85.4365 37.172 85.2732 37.3389C85.1105 37.5061 84.934 37.6339 84.7472 37.7193C84.5591 37.8047 84.3071 37.8707 83.9882 37.915C83.8044 37.9419 83.4577 37.9534 82.9498 37.9521L82.1967 37.9503L81.7339 40.1799ZM82.3956 36.981L82.7593 36.9818C83.3807 36.9833 83.7968 36.9449 84.0048 36.8653C84.213 36.7865 84.3786 36.6591 84.4976 36.4837C84.6181 36.3083 84.6784 36.1164 84.679 35.9052C84.6793 35.7648 84.6491 35.6494 84.5875 35.5591C84.5264 35.4677 84.4416 35.4023 84.3307 35.3614C84.2202 35.3186 83.9737 35.2978 83.5912 35.2971L82.7475 35.295L82.3956 36.981ZM88.6293 38.9041L86.3589 38.8986L85.6694 40.189L84.4589 40.1863L87.7093 34.3458L89.0184 34.3484L89.9342 40.1993L88.8171 40.1966L88.6293 38.9041ZM88.4867 37.9299L88.1602 35.5744L86.772 37.9257L88.4867 37.9299ZM94.8053 40.2106L93.7066 40.2078L92.1693 36.2749L91.3562 40.2024L90.2593 40.1997L91.4668 34.3542L92.5685 34.3567L94.1095 38.2739L94.92 34.3621L96.0132 34.3648L94.8053 40.2106ZM95.5266 40.2121L96.7389 34.3664L97.9148 34.3691L96.7067 40.2147L95.5266 40.2121ZM97.3776 40.2157L98.5871 34.3704L102.832 34.3801L102.631 35.3573L99.5649 35.35L99.2884 36.6774L102.252 36.6844L102.051 37.6616L99.0862 37.6547L98.724 39.2413L102.056 39.2491L101.85 40.2264L97.3776 40.2157ZM102.471 38.332L103.592 38.2748C103.606 38.6401 103.667 38.8865 103.773 39.0134C103.944 39.2221 104.263 39.3263 104.726 39.3274C105.111 39.3284 105.39 39.2578 105.562 39.1182C105.734 38.9771 105.821 38.8069 105.822 38.6082C105.822 38.4356 105.752 38.2878 105.611 38.1682C105.513 38.0803 105.241 37.9369 104.797 37.7396C104.354 37.5417 104.03 37.3775 103.826 37.2449C103.623 37.1122 103.462 36.9417 103.345 36.7316C103.228 36.5201 103.17 36.2752 103.171 35.9935C103.172 35.5002 103.348 35.0934 103.698 34.7689C104.047 34.4454 104.554 34.2849 105.215 34.2864C105.887 34.2879 106.406 34.4497 106.774 34.7719C107.141 35.0956 107.342 35.5235 107.378 36.0589L106.249 36.108C106.22 35.8285 106.122 35.6132 105.953 35.4645C105.784 35.3155 105.535 35.2403 105.204 35.2397C104.879 35.2385 104.646 35.2963 104.507 35.4133C104.367 35.5305 104.297 35.6771 104.296 35.8554C104.296 36.0229 104.36 36.1619 104.488 36.2712C104.614 36.3833 104.896 36.5365 105.333 36.7322C105.992 37.0237 106.411 37.2591 106.59 37.4402C106.857 37.7082 106.991 38.0501 106.99 38.4668C106.989 38.9829 106.788 39.4235 106.387 39.7871C105.986 40.1527 105.43 40.3341 104.715 40.3323C104.223 40.3314 103.797 40.246 103.438 40.0761C103.077 39.9062 102.822 39.6715 102.675 39.3702C102.528 39.0692 102.459 38.7242 102.471 38.332Z" fill="white"/>
<path fill-rule="evenodd" clip-rule="evenodd" d="M19.7988 8.26831C-3.83271 24.9971 -0.356403 35.6125 21.2517 34.0944C19.9226 35.0262 19.1158 37.5413 20.0682 39.8847C-3.94414 39.7157 -8.06978 21.3945 19.7988 8.26831Z" fill="white"/>
<path fill-rule="evenodd" clip-rule="evenodd" d="M71.5244 2.22802C99.064 -0.0451107 169.575 0.830081 141.276 23.7265C153.786 18.2694 157.634 4.2707 121.212 0.819505C104.348 -0.337091 87.7853 0.335222 71.5244 2.22802Z" fill="white"/>
</svg>
